<svg xmlns="http://www.w3.org/2000/svg" viewBox="0 0 360 360"><defs><linearGradient id="a" x1="-824.09" x2="-824.09" y1="699.98" y2="698.98" gradientTransform="matrix(-24.12 0 0 -16.23 -19741.56 11548.75)" gradientUnits="userSpaceOnUse"><stop offset="0" stop-color="#fff"/><stop offset="1" stop-color="#da3b1b"/></linearGradient></defs><ellipse cx="177.05" cy="73.53" rx="12.25" ry="10.5" style="fill:#c6fce3;stroke-width:0"/><path d="M107.74 164c-16.35 20.75-51.05 16.08-70.07 34.41-7.97 7.68-12.21 19.05-11.23 30.07s7.18 21.46 16.37 27.61c12.4 8.29 28.58 8.38 43.25 5.69s28.9-7.87 43.76-9.17c14.86-1.3 31.26 2.1 40.84 13.54 9.45 11.28 10.19 27.62 18.15 40 9.76 15.17 28.82 21.86 46.83 22.85 11.65.64 23.69-.74 34.04-6.14 17.75-9.25 27.89-28.86 32.17-48.41 2.04-9.3 2.94-19.32-.79-28.08-4.82-11.33-16.33-18.23-27.62-23.13-11.65-5.06-25.64-10.81-28.14-23.26-1.68-8.36 2.88-16.88 9.02-22.8s13.79-9.99 20.62-15.11c8.53-6.4 15.77-14.5 21.18-23.69 4.53-7.68 7.82-16.88 5.36-25.45-2.11-7.36-8.14-12.97-14.63-17.03-18.03-11.29-40.81-13.1-61.64-8.81-14.2 2.92-28.01 8.52-42.51 8.79-14.33.27-28.69-4.95-39.51-14.34-9.54-8.28-16.25-19.51-26.13-27.38-20.92-16.67-52.55-14.42-75.28-.31-10.43 6.48-19.92 15.9-22.49 27.91-3.73 17.35 8.26 34.8 23.38 44.1 15.12 9.29 33.02 12.62 50 17.78 4.88 1.48 9.95 3.28 13.34 7.09s4.21 10.14 1.73 13.28Z" style="fill:#c6fce3;fill-rule:evenodd;stroke-width:0"/><ellipse cx="141.84" cy="281.29" rx="23.18" ry="17" style="fill:#c6fce3;stroke-width:0"/><path d="m176.59 124.27-31.04 9.74a.654.654 0 0 1-.82-.81l2.88-9.5-10.34-3.14a.782.782 0 0 1-.52-.97l4.42-14.58c.12-.41.56-.64.97-.52l10.34 3.14 2.88-9.5c.15-.5.8-.63 1.13-.22l20.4 25.34c.29.36.13.9-.31 1.03ZM202.49 250.72l-32.25 4.33c-.52.06-.9-.48-.67-.94l4.45-8.88-9.66-4.85a.79.79 0 0 1-.35-1.05l6.83-13.62a.79.79 0 0 1 1.05-.35l9.66 4.85 4.45-8.88c.23-.46.89-.48 1.15-.03l15.81 28.44c.22.4-.03.9-.48.97ZM162.4 180.88l15.64-28.53c.26-.46.92-.44 1.15.02l4.5 8.85 9.63-4.9c.38-.2.85-.04 1.05.34l6.91 13.58c.2.38.04.85-.34 1.05l-9.63 4.9 4.5 8.85c.24.46-.14 1-.66.94l-32.27-4.14a.652.652 0 0 1-.49-.96Z" style="fill:#fff;fill-rule:evenodd;stroke-width:0"/><path d="M248.98 311.73c20.99 0 38-12.81 38-31.15s-11.47-29.55-38-29.73c-26.53-.17-38 11.39-38 29.73s17.01 31.15 38 31.15Z" style="fill:#da3b1b;fill-rule:evenodd;stroke-width:0"/><path d="M258.4 253.89c-.24-.12-.48-.22-.73-.32-.22-.09-.17-.28.08-.33h.05c3.7-.83 5.98-2.88 6.76-3.68.17-.18.03-.4-.3-.47-1.49-.3-5.51-.95-9.21-.13-2.7.6-4.64 1.85-5.8 2.8-.13.11-.4.11-.53 0a13.99 13.99 0 0 0-5.8-2.8c-3.7-.82-7.72-.17-9.21.13-.33.07-.47.29-.3.47.78.81 3.06 2.85 6.76 3.67h.05c.25.07.29.26.08.35-.25.1-.49.21-.73.32-3.04 1.49-4.05 3.85-4.34 4.77-.06.2.2.38.55.38 1.58 0 5.74-.16 8.78-1.64.22-.11.54-.02.54.14 0 2.33 2.46 4.3 3.47 5.01.22.16.63.16.85 0 1.01-.71 3.46-2.68 3.46-5.01 0-.17.32-.26.54-.15 3.04 1.49 7.19 1.65 8.78 1.65.35 0 .61-.18.55-.38-.29-.91-1.3-3.28-4.34-4.77Z" style="fill:#00a155;stroke-width:0"/><path d="M249.07 254.92c-1.03 0-1.87-.83-1.87-1.84 0-4.78 2.25-9.01 5.52-11.32.84-.59 2-.4 2.6.43.59.82.41 1.96-.41 2.55 0 0-.02.01-.03.02-2.37 1.67-3.96 4.76-3.96 8.32 0 1.02-.84 1.84-1.87 1.84Z" style="fill:#006539;stroke-width:0"/><path d="m279.38 271.67-.92-.92 3.68-4.6 1.84 1.84-4.6 3.68Zm30.02 0 .92-.92-3.68-4.6-1.84 1.84 4.6 3.68Z" style="fill:#5d6d7e;stroke-width:0"/><path d="m311.06 236.08-12.4-7.16.36-.62a6.416 6.416 0 0 1 3.91-3c1.65-.44 3.41-.21 4.89.64l1.24.71a6.43 6.43 0 0 1 2.36 8.79v.01l-.36.62Z" style="fill:#34495e;stroke-width:0"/><path d="m304.3 232.17 1.13.65-.65 1.13-1.13-.65.65-1.13Z" style="fill:#5d6d7e;stroke-width:0"/><path d="m290.12 228.92-12.4 7.16-.36-.62a6.385 6.385 0 0 1-.64-4.89 6.416 6.416 0 0 1 3-3.91l1.24-.71a6.385 6.385 0 0 1 4.89-.64c1.65.44 3.06 1.52 3.91 3l.36.62Z" style="fill:#34495e;stroke-width:0"/><path d="m283.35 232.82 1.13-.65.65 1.13-1.13.65-.65-1.13Zm10.65-4.85h1v2.6h-1v-2.6Z" style="fill:#5d6d7e;stroke-width:0"/><path d="M292.11 227.06c0 .5.41.91.91.91h2.73c.5 0 .91-.41.91-.91v-.13c0-.5-.41-.91-.91-.91h-2.73c-.5 0-.91.41-.91.91v.13Z" style="fill:#34495e;stroke-width:0"/><circle cx="294.39" cy="250.87" r="20.3" style="fill:#34495e;stroke-width:0"/><path d="M311.97 250.87c0 9.71-7.87 17.58-17.58 17.58s-17.58-7.87-17.58-17.58 7.87-17.58 17.58-17.58 17.58 7.87 17.58 17.58Z" style="fill:#fff;stroke-width:0"/><path d="M289.24 265.09c-8.78-1.36-25.53-1.63-37.6 1.63h-5.21c-12.07-3.26-28.81-2.98-37.6-1.63-1.09.27-1.09 4.88-.27 5.15 1.65.81 2.47 2.44 2.47 2.44s.55 1.63 1.92 7.59c1.36 5.99 4.94 7.08 4.94 7.08s4.39 1.08 9.33 1.08 7.96-.27 11.25-1.9 4.66-5.97 4.66-5.97 1.65-3.8 2.74-7.32c.27-1.09 5.77-1.09 6.04 0 1.09 3.53 2.74 7.32 2.74 7.32s1.38 4.34 4.66 5.97c3.3 1.63 6.31 1.9 11.25 1.9s9.33-1.08 9.33-1.08 3.57-.81 4.94-7.05c1.38-6.24 1.92-7.59 1.92-7.59s.82-1.63 2.47-2.44c1.12-.28 1.12-5.18.01-5.18Z" style="fill:#000;stroke-width:0"/><path d="M289.26 248.08a6.913 6.913 0 0 1 9.62-1.72c1.2.83 2.1 2.02 2.58 3.4a.99.99 0 1 0 1.88-.62s0-.02-.01-.03c-1.61-4.63-6.68-7.08-11.31-5.47a8.981 8.981 0 0 0-3.99 2.8v-1.32a1 1 0 0 0-1.02-.96c-.52.02-.94.43-.96.96v3.95c0 .55.44.99.99.99h3.95c.55 0 .99-.44.99-.99s-.44-.99-.99-.99h-1.72Zm11.34 7.89a6.913 6.913 0 0 1-12.18-1.63.992.992 0 0 0-1.26-.6c-.51.18-.78.75-.6 1.26 1.65 4.62 6.73 7.03 11.35 5.38 1.54-.55 2.9-1.51 3.92-2.78v1.32c-.02.54.41 1 .96 1.02.54.02 1-.41 1.02-.96v-4.01c0-.54-.44-.99-.99-.99h-3.95c-.55 0-.99.44-.99.99s.44.99.99.99h1.72Z" style="fill:#ff8e31;stroke-width:0"/><path d="m97.39 91.59-.92-.92 3.68-4.6 1.84 1.84-4.6 3.68Zm30.03 0 .92-.92-3.68-4.6-1.84 1.84 4.6 3.68Z" style="fill:#5d6d7e;stroke-width:0"/><path d="m129.08 56-12.4-7.16.36-.62a6.416 6.416 0 0 1 3.91-3c1.65-.44 3.41-.21 4.89.64l1.24.71a6.43 6.43 0 0 1 2.36 8.79v.01l-.36.62Z" style="fill:#34495e;stroke-width:0"/><path d="m122.31 52.1 1.13.65-.65 1.13-1.13-.65.65-1.13Z" style="fill:#5d6d7e;stroke-width:0"/><path d="M108.14 48.84 95.74 56l-.36-.62a6.385 6.385 0 0 1-.64-4.89 6.416 6.416 0 0 1 3-3.91l1.24-.71a6.385 6.385 0 0 1 4.89-.64c1.65.44 3.06 1.52 3.91 3l.36.62Z" style="fill:#34495e;stroke-width:0"/><path d="m101.37 52.75 1.13-.65.65 1.13-1.13.65-.65-1.13Zm10.65-4.85h1v2.6h-1v-2.6Z" style="fill:#5d6d7e;stroke-width:0"/><path d="M110.13 46.99c0 .5.41.91.91.91h2.73c.5 0 .91-.41.91-.91v-.13c0-.5-.41-.91-.91-.91h-2.73c-.5 0-.91.41-.91.91v.13Z" style="fill:#34495e;stroke-width:0"/><circle cx="112.41" cy="70.8" r="20.3" style="fill:#34495e;stroke-width:0"/><path d="M130.16 70.57c0 9.71-7.87 17.58-17.58 17.58S95 80.28 95 70.57s7.87-17.58 17.58-17.58 17.58 7.87 17.58 17.58Z" style="fill:#fff;stroke-width:0"/><path d="m122.55 63.65-10.98 7.31c-.34.23-.43.69-.21 1.04.21.34.65.44.99.24 0 0 .02-.01.02-.02l10.98-7.31-.8-1.26h0Zm-12.22 6.29-7.3-4.2-.72 1.31 7.3 4.2c.35.2.8.08 1-.28a.75.75 0 0 0-.28-1.02Z" style="fill:#283a4d;stroke:#283a4d;stroke-linecap:round;stroke-linejoin:round"/><path d="M115.36 71.59c0 1.91-1.52 3.47-3.39 3.47s-3.39-1.55-3.39-3.47 1.51-3.47 3.39-3.47 3.39 1.56 3.39 3.47Z" style="fill:#ff8e31;stroke-width:0"/><path d="M69 129.65c20.99 0 38-12.81 38-31.15S95.53 68.95 69 68.77C42.47 68.6 31 80.16 31 98.5s17.01 31.15 38 31.15Z" style="fill:#da3b1b;fill-rule:evenodd;stroke-width:0"/><path d="M78.42 71.82c-.24-.12-.48-.22-.73-.32-.22-.09-.17-.28.08-.33h.05c3.7-.83 5.98-2.88 6.76-3.68.17-.18.03-.4-.3-.47-1.49-.3-5.51-.95-9.21-.13-2.7.6-4.64 1.85-5.8 2.8-.13.11-.4.11-.53 0a13.99 13.99 0 0 0-5.8-2.8c-3.7-.82-7.72-.17-9.21.13-.33.07-.47.29-.3.47.78.81 3.06 2.85 6.76 3.67h.05c.25.07.29.26.08.35-.25.1-.49.21-.73.32-3.04 1.49-4.05 3.85-4.34 4.77-.06.2.2.38.55.38 1.58 0 5.74-.16 8.78-1.64.22-.11.54-.02.54.14 0 2.33 2.46 4.3 3.47 5.01.22.16.63.16.85 0 1.01-.71 3.46-2.68 3.46-5.01 0-.17.32-.26.54-.15 3.04 1.49 7.19 1.65 8.78 1.65.35 0 .61-.18.55-.38-.29-.91-1.3-3.28-4.34-4.77Z" style="fill:#00a155;stroke-width:0"/><path d="M69.09 72.85c-1.03 0-1.87-.83-1.87-1.84 0-4.78 2.25-9.01 5.52-11.32.84-.59 2-.4 2.6.43.59.82.41 1.96-.41 2.55 0 0-.02.01-.03.02-2.37 1.67-3.96 4.76-3.96 8.32 0 1.02-.84 1.84-1.87 1.84Z" style="fill:#006539;stroke-width:0"/><path d="M108.26 83.01c-8.78-1.36-25.53-1.63-37.6 1.63h-5.21c-12.07-3.26-28.81-2.98-37.6-1.63-1.09.27-1.09 4.88-.27 5.15 1.65.81 2.47 2.44 2.47 2.44s.55 1.63 1.92 7.59c1.36 5.99 4.94 7.08 4.94 7.08s4.39 1.08 9.33 1.08 7.96-.27 11.25-1.9 4.66-5.97 4.66-5.97 1.65-3.8 2.74-7.32c.27-1.09 5.77-1.09 6.04 0 1.09 3.53 2.74 7.32 2.74 7.32s1.38 4.34 4.66 5.97c3.3 1.63 6.31 1.9 11.25 1.9s9.33-1.08 9.33-1.08 3.57-.81 4.94-7.05c1.38-6.24 1.92-7.59 1.92-7.59s.82-1.63 2.47-2.44c1.12-.28 1.12-5.18.01-5.18Z" style="fill:#000;stroke-width:0"/><path d="M279.17 117.14v.05l-.01-.05-.3-2.49.31 2.49zM299.7 114.65l-.3 2.49-.01.05v-.05l.31-2.49z" style="fill:#99fff3;stroke-width:0"/><path d="m299.7 114.65-.3 2.49-.01.05v-.05l.31-2.49zM279.17 117.14v.05l-.01-.05-.3-2.49.31 2.49zM282.18 130.8h-.24v-.03c.08.02.16.03.24.03ZM296.69 130.76v.04h-.31c.1 0 .21-.01.31-.04Z" style="fill:#99fff3;stroke-width:0"/><path d="m299.7 114.65-.3 2.49h-.01l.31-2.49zM279.17 117.14h-.01l-.3-2.49.31 2.49z" style="fill:#99fff3;stroke-width:0"/><path d="M303.31 92.3c.42 0 .74.36.69.77l-1.22 11.26-.61 5.64v.03l-.04.32-.38 3.52v.07l-1.78 16.47-.1.9c-.1.92-.69 1.62-1.44 1.79-.12.04-.26.06-.38.06h-17.44c-.1 0-.2-.01-.29-.04-.79-.13-1.42-.85-1.52-1.81l-.1-.9-1.78-16.47v-.07l-.38-3.52-.04-.31v-.04l-.61-5.64-1.22-11.26a.7.7 0 0 1 .69-.77h27.94Z" style="fill:#34495e;stroke-width:0"/><path d="m300.79 96.78-1.02 9.81-.48 4.6v.02l-.03.27-.3 2.87v.06l-1.39 13.43-.08.74c-.08.75-.54 1.32-1.12 1.46-.1.03-.2.05-.3.05h-13.6c-.08 0-.15-.01-.23-.03-.61-.1-1.11-.69-1.19-1.47l-.08-.74-1.39-13.43v-.06l-.3-2.87-.03-.25v-.03l-.48-4.6-1.01-9.81h23Z" style="fill:#99fff3;stroke-width:0"/><rect width="5.37" height="5.38" x="285.93" y="95.61" rx="1.46" ry="1.46" style="fill:#fcfcfc;stroke-width:0" transform="rotate(-16.08 288.56 98.273)"/><rect width="5.37" height="5.38" x="290.44" y="119.41" rx="1.46" ry="1.46" style="fill:#fcfcfc;stroke-width:0" transform="rotate(-16.08 293.102 122.093)"/><rect width="2.15" height="43.2" x="295.61" y="78.9" rx="1.07" ry="1.07" style="fill:#34495e;stroke-width:0" transform="rotate(32.17 296.649 100.475)"/><rect width="5.37" height="5.38" x="280.7" y="106.98" rx="1.46" ry="1.46" style="fill:#fcfcfc;stroke-width:0" transform="rotate(21.65 283.404 109.686)"/><path d="M243.67 160.76c20.99 0 38-12.81 38-31.15s-11.47-29.55-38-29.73c-26.53-.17-38 11.39-38 29.73s17.01 31.15 38 31.15Z" style="fill:#da3b1b;fill-rule:evenodd;stroke-width:0"/><path d="M253.09 102.92c-.24-.12-.48-.22-.73-.32-.22-.09-.17-.28.08-.33h.05c3.7-.83 5.98-2.88 6.76-3.68.17-.18.03-.4-.3-.47-1.49-.3-5.51-.95-9.21-.13-2.7.6-4.64 1.85-5.8 2.8-.13.11-.4.11-.53 0a13.99 13.99 0 0 0-5.8-2.8c-3.7-.82-7.72-.17-9.21.13-.33.07-.47.29-.3.47.78.81 3.06 2.85 6.76 3.67h.05c.25.07.29.26.08.35-.25.1-.49.21-.73.32-3.04 1.49-4.05 3.85-4.34 4.77-.06.2.2.38.55.38 1.58 0 5.74-.16 8.78-1.64.22-.11.54-.02.54.14 0 2.33 2.46 4.3 3.47 5.01.22.16.63.16.85 0 1.01-.71 3.46-2.68 3.46-5.01 0-.17.32-.26.54-.15 3.04 1.49 7.19 1.65 8.78 1.65.35 0 .61-.18.55-.38-.29-.91-1.3-3.28-4.34-4.77Z" style="fill:#00a155;stroke-width:0"/><path d="M243.76 103.95c-1.03 0-1.87-.83-1.87-1.84 0-4.78 2.25-9.01 5.52-11.32.84-.59 2-.4 2.6.43.59.82.41 1.96-.41 2.55 0 0-.02.01-.03.02-2.37 1.67-3.96 4.76-3.96 8.32 0 1.02-.84 1.84-1.87 1.84Z" style="fill:#006539;stroke-width:0"/><path d="M283.92 114.11c-8.78-1.36-25.53-1.63-37.6 1.63h-5.21c-12.07-3.26-28.81-2.98-37.6-1.63-1.09.27-1.09 4.88-.27 5.15 1.65.81 2.47 2.44 2.47 2.44s.55 1.63 1.92 7.59c1.36 5.99 4.94 7.08 4.94 7.08s4.39 1.08 9.33 1.08 7.96-.27 11.25-1.9 4.66-5.97 4.66-5.97 1.65-3.8 2.74-7.32c.27-1.09 5.77-1.09 6.04 0 1.09 3.53 2.74 7.32 2.74 7.32s1.38 4.34 4.66 5.97c3.3 1.63 6.31 1.9 11.25 1.9s9.33-1.08 9.33-1.08 3.57-.81 4.94-7.05c1.38-6.24 1.92-7.59 1.92-7.59s.82-1.63 2.47-2.44c1.12-.28 1.12-5.18.01-5.18Z" style="fill:#000;stroke-width:0"/><path d="M153.55 182.42c-3.27-3.23-8.59-3.23-11.86 0-.47.46-.47 1.21-.01 1.67l.01.01 10.16 10.04c.47.47 1.23.47 1.71 0a8.233 8.233 0 0 0 .08-11.65c-.03-.03-.05-.06-.08-.08Z" style="fill:#4e901e;stroke-width:0"/><path d="M152.58 183.45c-2.77-2.74-7.26-2.74-10.03 0-.26.25-.49.53-.71.81l9.91 9.8c.29-.21.57-.44.83-.7 2.74-2.69 2.77-7.09.08-9.83l-.08-.08Z" style="fill:#ffeb99;stroke-width:0"/><path d="M129.18 225.41h2.03c1.76 0 1.92-1.82 1.93-2.3v-10.05c-.02-6.41-1.93-7.22-1.93-7.22h5.9s-1.93.81-1.93 7.3v9.95c.01.45.15 2.31 1.93 2.31h2.03c.77 0 1.41.62 1.41 1.4 0 .78-.64 1.4-1.41 1.4h-9.95a1.4 1.4 0 1 1 0-2.8Z" style="fill:#34495e;stroke-width:0"/><path d="M118.87 187.03c.3-.54.87-.88 1.49-.88h27.59c.62 0 1.19.33 1.49.88.3.54.27 1.2-.07 1.71l-9.15 13.96c-.31.49-2.67 4.04-6.07 4.04s-5.76-3.55-6.07-4.04l-9.15-13.96c-.34-.51-.36-1.17-.07-1.71Z" style="fill:#34495e;stroke-width:0"/><path d="M122.26 188.73c.23-.42.67-.67 1.14-.67h21.52c.48 0 .91.26 1.14.67.23.41.21.92-.05 1.31l-7.28 11.11s-1.76 3.13-4.57 3.13c-2.52 0-4.35-2.8-4.55-3.11l-7.3-11.13c-.26-.4-.28-.9-.05-1.31Z" style="fill:url(#a);stroke-width:0"/><path d="M87.21 256.66c20.99 0 38-12.81 38-31.15s-11.47-29.55-38-29.73c-26.53-.17-38 11.39-38 29.73s17.01 31.15 38 31.15Z" style="fill:#da3b1b;fill-rule:evenodd;stroke-width:0"/><path d="M96.63 198.82c-.24-.12-.48-.22-.73-.32-.22-.09-.17-.28.08-.33h.05c3.7-.83 5.98-2.88 6.76-3.68.17-.18.03-.4-.3-.47-1.49-.3-5.51-.95-9.21-.13-2.7.6-4.64 1.85-5.8 2.8-.13.11-.4.11-.53 0a13.99 13.99 0 0 0-5.8-2.8c-3.7-.82-7.72-.17-9.21.13-.33.07-.47.29-.3.47.78.81 3.06 2.85 6.76 3.67h.05c.25.07.29.26.08.35-.25.1-.49.21-.73.32-3.04 1.49-4.05 3.85-4.34 4.77-.06.2.2.38.55.38 1.58 0 5.74-.16 8.78-1.64.22-.11.54-.02.54.14 0 2.33 2.46 4.3 3.47 5.01.22.16.63.16.85 0 1.01-.71 3.46-2.68 3.46-5.01 0-.17.32-.26.54-.15 3.04 1.49 7.19 1.65 8.78 1.65.35 0 .61-.18.55-.38-.29-.91-1.3-3.28-4.34-4.77Z" style="fill:#00a155;stroke-width:0"/><path d="M87.3 199.85c-1.03 0-1.87-.83-1.87-1.84 0-4.78 2.25-9.01 5.52-11.32.84-.59 2-.4 2.6.43.59.82.41 1.96-.41 2.55 0 0-.02.01-.03.02-2.37 1.67-3.96 4.76-3.96 8.32 0 1.02-.84 1.84-1.87 1.84Z" style="fill:#006539;stroke-width:0"/><path d="M127.46 210.01c-8.78-1.36-25.53-1.63-37.6 1.63h-5.21c-12.07-3.26-28.81-2.98-37.6-1.63-1.09.27-1.09 4.88-.27 5.15 1.65.81 2.47 2.44 2.47 2.44s.55 1.63 1.92 7.59c1.36 5.99 4.94 7.08 4.94 7.08s4.39 1.08 9.33 1.08 7.96-.27 11.25-1.9 4.66-5.97 4.66-5.97 1.65-3.8 2.74-7.32c.27-1.09 5.77-1.09 6.04 0 1.09 3.53 2.74 7.32 2.74 7.32s1.38 4.34 4.66 5.97c3.3 1.63 6.31 1.9 11.25 1.9s9.33-1.08 9.33-1.08 3.57-.81 4.94-7.05c1.38-6.24 1.92-7.59 1.92-7.59s.82-1.63 2.47-2.44c1.12-.28 1.12-5.18.01-5.18Z" style="fill:#000;stroke-width:0"/></svg>
