<svg xmlns="http://www.w3.org/2000/svg" width="150" height="150"><defs><linearGradient id="a" x1="50%" x2="50%" y1="43.648%" y2="43.723%"><stop offset="0%" stop-color="#FFF"/><stop offset="100%" stop-color="#da3b1b"/></linearGradient></defs><g fill="none" fill-rule="evenodd"><circle cx="75" cy="75" r="75" fill="#C6FCE3"/><g fill-rule="nonzero"><path fill="#4E901E" d="M134.348 42.425c-3.271-3.233-8.593-3.233-11.864 0a1.184 1.184 0 0 0 0 1.688l10.156 10.04a1.218 1.218 0 0 0 1.708 0 8.235 8.235 0 0 0 0-11.728Z"/><path fill="#FFEB99" d="M133.373 43.45c-2.77-2.738-7.259-2.738-10.028 0a7.08 7.08 0 0 0-.708.815l9.91 9.797c.29-.21.565-.443.826-.7a6.952 6.952 0 0 0 0-9.913Z"/><path fill="#34495E" d="M109.974 85.41h2.025c1.76 0 1.921-1.824 1.934-2.299V73.065c-.016-6.411-1.934-7.22-1.934-7.22h5.903s-1.934.814-1.934 7.298v9.954c.01.451.155 2.313 1.934 2.313h2.025a1.41 1.41 0 0 1 1.413 1.397 1.41 1.41 0 0 1-1.413 1.398h-9.953a1.41 1.41 0 0 1-1.414-1.398 1.41 1.41 0 0 1 1.414-1.397Z"/><path fill="#34495E" d="M99.664 47.034a1.7 1.7 0 0 1 1.49-.876h27.593a1.7 1.7 0 0 1 1.49.876 1.66 1.66 0 0 1-.067 1.712l-9.15 13.96c-.309.488-2.665 4.036-6.07 4.036-3.404 0-5.76-3.548-6.069-4.037l-9.15-13.959a1.66 1.66 0 0 1-.067-1.712Z"/><path fill="url(#a)" d="M33.844 8.727a1.303 1.303 0 0 0-1.142-.672H11.184c-.476 0-.915.258-1.142.672-.228.414-.208.918.05 1.313l7.285 11.112s1.756 3.133 4.566 3.133c2.516 0 4.353-2.797 4.554-3.115l7.296-11.13c.259-.395.279-.9.051-1.313Z" transform="matrix(-1 0 0 1 136.893 40)"/></g><path fill="#da3b1b" d="M68 116.656c20.987 0 38-12.808 38-31.149 0-18.339-11.47-29.554-38-29.733-26.53-.175-38 11.394-38 29.733 0 18.341 17.013 31.15 38 31.15Z"/><path fill="#00A155" fill-rule="nonzero" d="M77.421 58.818a10.928 10.928 0 0 0-.732-.324c-.218-.087-.171-.282.076-.335l.053-.012c3.701-.821 5.977-2.865 6.757-3.672.17-.177.026-.401-.302-.467-1.494-.302-5.508-.951-9.21-.13-2.701.6-4.643 1.85-5.798 2.796-.13.107-.4.107-.53 0a13.945 13.945 0 0 0-5.798-2.796c-3.702-.821-7.715-.172-9.21.13-.328.066-.473.29-.302.467.78.806 3.056 2.85 6.758 3.672l.052.012c.247.053.294.248.076.335-.25.1-.494.208-.732.324-3.04 1.486-4.05 3.855-4.336 4.766-.063.2.2.385.546.384 1.581-.001 5.736-.158 8.776-1.644l.006-.003c.215-.106.538-.017.537.147v.005c0 2.32 2.456 4.292 3.466 5.005.221.157.631.157.853 0 1.01-.713 3.465-2.684 3.465-5.005v-.005c0-.165.322-.253.538-.147l.006.003c3.04 1.486 7.195 1.643 8.775 1.644.347 0 .61-.184.547-.384-.288-.911-1.298-3.28-4.337-4.766Z"/><path fill="#006539" fill-rule="nonzero" d="M68.092 59.85c-1.031 0-1.867-.825-1.867-1.843 0-4.784 2.247-9.015 5.52-11.32.839-.592 2.005-.4 2.604.429a1.827 1.827 0 0 1-.435 2.57c-2.37 1.67-3.955 4.76-3.955 8.321 0 1.018-.836 1.843-1.867 1.843Z"/><path fill="#000" fill-rule="nonzero" d="M108.255 70.012c-8.782-1.361-25.527-1.63-37.595 1.631H65.45c-12.068-3.262-28.814-2.978-37.595-1.63-1.09.269-1.09 4.879-.273 5.148 1.65.809 2.468 2.44 2.468 2.44s.545 1.631 1.923 7.588c1.363 5.986 4.936 7.078 4.936 7.078s4.391 1.078 9.327 1.078 7.964-.27 11.25-1.9c3.286-1.632 4.664-5.972 4.664-5.972s1.65-3.801 2.74-7.319c.273-1.092 5.769-1.092 6.041 0 1.091 3.532 2.741 7.319 2.741 7.319s1.378 4.34 4.664 5.972c3.3 1.63 6.314 1.9 11.25 1.9s9.327-1.078 9.327-1.078 3.573-.808 4.936-7.05c1.377-6.24 1.923-7.588 1.923-7.588s.818-1.631 2.468-2.44c1.12-.283 1.12-5.177.014-5.177Z"/></g></svg>
