<svg xmlns="http://www.w3.org/2000/svg" xmlns:xlink="http://www.w3.org/1999/xlink" width="150" height="150"><defs><path id="a" d="M3.43 5.153a6.91 6.91 0 0 1 12.196 1.674.987.987 0 1 0 1.864-.649A8.884 8.884 0 0 0 2.192 3.516V2.192a.987.987 0 0 0-1.973 0V6.14c0 .545.441.987.987.987h3.947a.987.987 0 0 0 0-1.974H3.43Zm11.341 7.895a6.91 6.91 0 0 1-12.179-1.625.987.987 0 1 0-1.859.664 8.884 8.884 0 0 0 15.276 2.598v1.324a.987.987 0 1 0 1.973 0V12.06a.987.987 0 0 0-.986-.987h-3.948a.987.987 0 1 0 0 1.974h1.723Z"/></defs><g fill="none" fill-rule="evenodd"><circle cx="75" cy="75" r="75" fill="#C6FCE3"/><path fill="#da3b1b" d="M65 116.656c20.987 0 38-12.808 38-31.149 0-18.339-11.47-29.554-38-29.733-26.53-.175-38 11.394-38 29.733 0 18.341 17.013 31.15 38 31.15Z"/><path fill="#00A155" fill-rule="nonzero" d="M74.421 58.818a10.928 10.928 0 0 0-.732-.324c-.218-.087-.171-.282.076-.335l.053-.012c3.701-.821 5.977-2.865 6.757-3.672.17-.177.026-.401-.302-.467-1.494-.302-5.508-.951-9.21-.13-2.701.6-4.643 1.85-5.798 2.796-.13.107-.4.107-.53 0a13.945 13.945 0 0 0-5.798-2.796c-3.702-.821-7.715-.172-9.21.13-.328.066-.473.29-.302.467.78.806 3.056 2.85 6.758 3.672l.052.012c.247.053.294.248.076.335-.25.1-.494.208-.732.324-3.04 1.486-4.05 3.855-4.336 4.766-.063.2.2.385.546.384 1.581-.001 5.736-.158 8.776-1.644l.006-.003c.215-.106.538-.017.537.147v.005c0 2.32 2.456 4.292 3.466 5.005.221.157.631.157.853 0 1.01-.713 3.465-2.684 3.465-5.005v-.005c0-.165.322-.253.538-.147l.006.003c3.04 1.486 7.195 1.643 8.775 1.644.347 0 .61-.184.547-.384-.288-.911-1.298-3.28-4.337-4.766Z"/><path fill="#006539" fill-rule="nonzero" d="M65.092 59.85c-1.031 0-1.867-.825-1.867-1.843 0-4.784 2.247-9.015 5.52-11.32.839-.592 2.005-.4 2.604.429a1.827 1.827 0 0 1-.435 2.57c-2.37 1.67-3.955 4.76-3.955 8.321 0 1.018-.836 1.843-1.867 1.843Z"/><g fill-rule="nonzero" transform="translate(90 30)"><path fill="#5D6D7E" d="m5.394 46.594-.921-.925 3.682-4.598 1.838 1.841zM35.418 46.594l.924-.925-3.682-4.598-1.841 1.841z"/><path fill="#34495E" d="M37.075 11.002 24.68 3.844l.357-.619a6.421 6.421 0 0 1 3.91-3.001 6.422 6.422 0 0 1 4.89.644l1.238.713a6.436 6.436 0 0 1 2.358 8.8l-.358.62Z"/><path fill="#5D6D7E" d="m30.314 7.098 1.127.65-.65 1.127-1.127-.65z"/><path fill="#34495E" d="M16.135 3.843 3.74 11.002l-.36-.621a6.414 6.414 0 0 1-.642-4.889 6.424 6.424 0 0 1 3-3.911L6.977.867a6.424 6.424 0 0 1 4.89-.644 6.432 6.432 0 0 1 3.91 3.002l.357.618Z"/><path fill="#5D6D7E" d="m9.373 7.751 1.126-.65.65 1.127-1.126.65zM20.015 2.897h1v2.602h-1z"/><path fill="#34495E" d="M18.13 1.988c0 .502.41.91.912.91h2.732c.5 0 .91-.408.91-.91V1.86a.913.913 0 0 0-.91-.913h-2.732a.913.913 0 0 0-.911.913v.128Z"/><circle cx="20.407" cy="25.797" r="20.3" fill="#34495E"/><path fill="#FFF" d="M37.986 25.795c0 9.707-7.87 17.579-17.579 17.579-9.707 0-17.578-7.872-17.578-17.579 0-9.708 7.87-17.575 17.578-17.575 9.709 0 17.579 7.868 17.579 17.575Z"/></g><path fill="#000" fill-rule="nonzero" d="M105.255 70.012c-8.782-1.361-25.527-1.63-37.595 1.631H62.45c-12.068-3.262-28.814-2.978-37.595-1.63-1.09.269-1.09 4.879-.273 5.148 1.65.809 2.468 2.44 2.468 2.44s.545 1.631 1.923 7.588c1.363 5.986 4.936 7.078 4.936 7.078s4.391 1.078 9.327 1.078 7.964-.27 11.25-1.9c3.286-1.632 4.664-5.972 4.664-5.972s1.65-3.801 2.74-7.319c.273-1.092 5.769-1.092 6.041 0 1.091 3.532 2.741 7.319 2.741 7.319s1.378 4.34 4.664 5.972c3.3 1.63 6.314 1.9 11.25 1.9s9.327-1.078 9.327-1.078 3.573-.808 4.936-7.05c1.377-6.24 1.923-7.588 1.923-7.588s.818-1.631 2.468-2.44c1.12-.283 1.12-5.177.014-5.177Z"/><use xlink:href="#a" fill="#FF8E31" fill-rule="nonzero" transform="translate(101.85 47.85)"/></g></svg>
