<svg xmlns="http://www.w3.org/2000/svg" viewBox="0 0 360 360"><path d="M103.36 153.32c18.69-25.17 40.3-48.86 64.44-70.63 6.05-5.46 14.72-11.28 22.97-8.4 4.73 1.65 7.46 5.7 9.83 9.47 29.16 46.31 58.32 92.61 87.47 138.92 3.81 6.05 7.52 13.72 2.66 19.23-2.63 2.99-7.12 4.38-11.4 5.47-26.99 6.87-55.59 7.93-83.83 8.51-39.69.82-79.4.79-119.08-.08-6.74-.15-14.4-.68-18.55-5.08-4.47-4.73-2.68-11.53-.5-17.25 12.33-32.32 32.49-61.98 45.98-80.15Z" style="fill:#c6fce3;fill-rule:evenodd;stroke-width:0"/><path d="M181.14 145.48c14.55 0 26.35-8.88 26.35-21.6s-7.95-20.49-26.35-20.62c-18.4-.12-26.35 7.9-26.35 20.62s11.8 21.6 26.35 21.6Z" style="fill:#da3b1b;fill-rule:evenodd;stroke-width:0"/><path d="M187.67 105.37c-.17-.08-.34-.16-.51-.22-.15-.06-.12-.2.05-.23h.04c2.57-.58 4.14-2 4.69-2.55.12-.12.02-.28-.21-.32-1.04-.21-3.82-.66-6.39-.09a9.68 9.68 0 0 0-4.02 1.94c-.09.07-.28.07-.37 0a9.649 9.649 0 0 0-4.02-1.94c-2.57-.57-5.35-.12-6.39.09-.23.05-.33.2-.21.32.54.56 2.12 1.98 4.69 2.55h.04c.17.05.2.18.05.24-.17.07-.34.14-.51.22-2.11 1.03-2.81 2.67-3.01 3.31-.04.14.14.27.38.27 1.1 0 3.98-.11 6.09-1.14.15-.08.37-.01.37.1 0 1.61 1.7 2.98 2.4 3.47.15.11.44.11.59 0 .7-.49 2.4-1.86 2.4-3.47 0-.12.22-.18.37-.11 2.11 1.03 4.99 1.14 6.09 1.14.24 0 .42-.13.38-.27-.2-.63-.9-2.27-3.01-3.31Z" style="fill:#00a155;stroke-width:0"/><path d="M181.2 106.09c-.71 0-1.29-.57-1.29-1.28 0-3.32 1.56-6.25 3.83-7.85.58-.41 1.39-.28 1.81.3.41.57.28 1.36-.28 1.77 0 0-.01 0-.02.01-1.64 1.16-2.74 3.3-2.74 5.77 0 .71-.58 1.28-1.29 1.28Z" style="fill:#006539;stroke-width:0"/><path d="M181.14 145.48c14.55 0 26.35-8.88 26.35-21.6s-7.95-20.49-26.35-20.62c-18.4-.12-26.35 7.9-26.35 20.62s11.8 21.6 26.35 21.6Z" style="fill:#dbc05c;fill-rule:evenodd;stroke-width:0"/><path d="M187.67 105.37c-.17-.08-.34-.16-.51-.22-.15-.06-.12-.2.05-.23h.04c2.57-.58 4.14-2 4.69-2.55.12-.12.02-.28-.21-.32-1.04-.21-3.82-.66-6.39-.09a9.68 9.68 0 0 0-4.02 1.94c-.09.07-.28.07-.37 0a9.649 9.649 0 0 0-4.02-1.94c-2.57-.57-5.35-.12-6.39.09-.23.05-.33.2-.21.32.54.56 2.12 1.98 4.69 2.55h.04c.17.05.2.18.05.24-.17.07-.34.14-.51.22-2.11 1.03-2.81 2.67-3.01 3.31-.04.14.14.27.38.27 1.1 0 3.98-.11 6.09-1.14.15-.08.37-.01.37.1 0 1.61 1.7 2.98 2.4 3.47.15.11.44.11.59 0 .7-.49 2.4-1.86 2.4-3.47 0-.12.22-.18.37-.11 2.11 1.03 4.99 1.14 6.09 1.14.24 0 .42-.13.38-.27-.2-.63-.9-2.27-3.01-3.31Z" style="fill:#00a155;stroke-width:0"/><path d="M181.2 106.09c-.71 0-1.29-.57-1.29-1.28 0-3.32 1.56-6.25 3.83-7.85.58-.41 1.39-.28 1.81.3.41.57.28 1.36-.28 1.77 0 0-.01 0-.02.01-1.64 1.16-2.74 3.3-2.74 5.77 0 .71-.58 1.28-1.29 1.28Z" style="fill:#006539;stroke-width:0"/><path d="M267.89 149.68c14.55 0 26.35-8.88 26.35-21.6s-7.95-20.49-26.35-20.62c-18.4-.12-26.35 7.9-26.35 20.62s11.8 21.6 26.35 21.6Z" style="fill:#da3b1b;fill-rule:evenodd;stroke-width:0"/><path d="M274.43 109.57c-.17-.08-.34-.16-.51-.22-.15-.06-.12-.2.05-.23h.04c2.57-.58 4.14-2 4.69-2.55.12-.12.02-.28-.21-.32-1.04-.21-3.82-.66-6.39-.09a9.68 9.68 0 0 0-4.02 1.94c-.09.07-.28.07-.37 0a9.649 9.649 0 0 0-4.02-1.94c-2.57-.57-5.35-.12-6.39.09-.23.05-.33.2-.21.32.54.56 2.12 1.98 4.69 2.55h.04c.17.05.2.18.05.24-.17.07-.34.14-.51.22-2.11 1.03-2.81 2.67-3.01 3.31-.04.14.14.27.38.27 1.1 0 3.98-.11 6.09-1.14.15-.08.37-.01.37.1 0 1.61 1.7 2.98 2.4 3.47.15.11.44.11.59 0 .7-.49 2.4-1.86 2.4-3.47 0-.12.22-.18.37-.11 2.11 1.03 4.99 1.14 6.09 1.14.24 0 .42-.13.38-.27-.2-.63-.9-2.27-3.01-3.31Z" style="fill:#00a155;stroke-width:0"/><path d="M267.96 110.29c-.71 0-1.29-.57-1.29-1.28 0-3.32 1.56-6.25 3.83-7.85.58-.41 1.39-.28 1.81.3.41.57.28 1.36-.28 1.77 0 0-.01 0-.02.01-1.64 1.16-2.74 3.3-2.74 5.77 0 .71-.58 1.28-1.29 1.28Z" style="fill:#006539;stroke-width:0"/><path d="M267.89 149.68c14.55 0 26.35-8.88 26.35-21.6s-7.95-20.49-26.35-20.62c-18.4-.12-26.35 7.9-26.35 20.62s11.8 21.6 26.35 21.6Z" style="fill:#b53e26;fill-rule:evenodd;stroke-width:0"/><path d="M274.43 109.57c-.17-.08-.34-.16-.51-.22-.15-.06-.12-.2.05-.23h.04c2.57-.58 4.14-2 4.69-2.55.12-.12.02-.28-.21-.32-1.04-.21-3.82-.66-6.39-.09a9.68 9.68 0 0 0-4.02 1.94c-.09.07-.28.07-.37 0a9.649 9.649 0 0 0-4.02-1.94c-2.57-.57-5.35-.12-6.39.09-.23.05-.33.2-.21.32.54.56 2.12 1.98 4.69 2.55h.04c.17.05.2.18.05.24-.17.07-.34.14-.51.22-2.11 1.03-2.81 2.67-3.01 3.31-.04.14.14.27.38.27 1.1 0 3.98-.11 6.09-1.14.15-.08.37-.01.37.1 0 1.61 1.7 2.98 2.4 3.47.15.11.44.11.59 0 .7-.49 2.4-1.86 2.4-3.47 0-.12.22-.18.37-.11 2.11 1.03 4.99 1.14 6.09 1.14.24 0 .42-.13.38-.27-.2-.63-.9-2.27-3.01-3.31Z" style="fill:#00a155;stroke-width:0"/><path d="M267.96 110.29c-.71 0-1.29-.57-1.29-1.28 0-3.32 1.56-6.25 3.83-7.85.58-.41 1.39-.28 1.81.3.41.57.28 1.36-.28 1.77 0 0-.01 0-.02.01-1.64 1.16-2.74 3.3-2.74 5.77 0 .71-.58 1.28-1.29 1.28Z" style="fill:#006539;stroke-width:0"/><path d="M81.47 149.13c14.55 0 26.35-8.88 26.35-21.6s-7.95-20.49-26.35-20.62c-18.4-.12-26.35 7.9-26.35 20.62s11.8 21.6 26.35 21.6Z" style="fill:#da3b1b;fill-rule:evenodd;stroke-width:0"/><path d="M88 109.02c-.17-.08-.34-.16-.51-.22-.15-.06-.12-.2.05-.23h.04c2.57-.58 4.14-2 4.69-2.55.12-.12.02-.28-.21-.32-1.04-.21-3.82-.66-6.39-.09a9.68 9.68 0 0 0-4.02 1.94c-.09.07-.28.07-.37 0a9.649 9.649 0 0 0-4.02-1.94c-2.57-.57-5.35-.12-6.39.09-.23.05-.33.2-.21.32.54.56 2.12 1.98 4.69 2.55h.04c.17.05.2.18.05.24-.17.07-.34.14-.51.22-2.11 1.03-2.81 2.67-3.01 3.31-.04.14.14.27.38.27 1.1 0 3.98-.11 6.09-1.14.15-.08.37-.01.37.1 0 1.61 1.7 2.98 2.4 3.47.15.11.44.11.59 0 .7-.49 2.4-1.86 2.4-3.47 0-.12.22-.18.37-.11 2.11 1.03 4.99 1.14 6.09 1.14.24 0 .42-.13.38-.27-.2-.63-.9-2.27-3.01-3.31Z" style="fill:#00a155;stroke-width:0"/><path d="M81.53 109.74c-.71 0-1.29-.57-1.29-1.28 0-3.32 1.56-6.25 3.83-7.85.58-.41 1.39-.28 1.81.3.41.57.28 1.36-.28 1.77 0 0-.01 0-.02.01-1.64 1.16-2.74 3.3-2.74 5.77 0 .71-.58 1.28-1.29 1.28Z" style="fill:#006539;stroke-width:0"/><path d="M81.47 149.13c14.55 0 26.35-8.88 26.35-21.6s-7.95-20.49-26.35-20.62c-18.4-.12-26.35 7.9-26.35 20.62s11.8 21.6 26.35 21.6Z" style="fill:#da3b1b;fill-rule:evenodd;stroke-width:0"/><path d="M88 109.02c-.17-.08-.34-.16-.51-.22-.15-.06-.12-.2.05-.23h.04c2.57-.58 4.14-2 4.69-2.55.12-.12.02-.28-.21-.32-1.04-.21-3.82-.66-6.39-.09a9.68 9.68 0 0 0-4.02 1.94c-.09.07-.28.07-.37 0a9.649 9.649 0 0 0-4.02-1.94c-2.57-.57-5.35-.12-6.39.09-.23.05-.33.2-.21.32.54.56 2.12 1.98 4.69 2.55h.04c.17.05.2.18.05.24-.17.07-.34.14-.51.22-2.11 1.03-2.81 2.67-3.01 3.31-.04.14.14.27.38.27 1.1 0 3.98-.11 6.09-1.14.15-.08.37-.01.37.1 0 1.61 1.7 2.98 2.4 3.47.15.11.44.11.59 0 .7-.49 2.4-1.86 2.4-3.47 0-.12.22-.18.37-.11 2.11 1.03 4.99 1.14 6.09 1.14.24 0 .42-.13.38-.27-.2-.63-.9-2.27-3.01-3.31Z" style="fill:#00a155;stroke-width:0"/><path d="M81.53 109.74c-.71 0-1.29-.57-1.29-1.28 0-3.32 1.56-6.25 3.83-7.85.58-.41 1.39-.28 1.81.3.41.57.28 1.36-.28 1.77 0 0-.01 0-.02.01-1.64 1.16-2.74 3.3-2.74 5.77 0 .71-.58 1.28-1.29 1.28Z" style="fill:#006539;stroke-width:0"/><path d="M132.78 153.8c14.55 0 26.35-8.88 26.35-21.6s-7.95-20.49-26.35-20.62c-18.4-.12-26.35 7.9-26.35 20.62s11.8 21.6 26.35 21.6Z" style="fill:#da3b1b;fill-rule:evenodd;stroke-width:0"/><path d="M139.31 113.69c-.17-.08-.34-.16-.51-.22-.15-.06-.12-.2.05-.23h.04c2.57-.58 4.14-2 4.69-2.55.12-.12.02-.28-.21-.32-1.04-.21-3.82-.66-6.39-.09a9.68 9.68 0 0 0-4.02 1.94c-.09.07-.28.07-.37 0a9.649 9.649 0 0 0-4.02-1.94c-2.57-.57-5.35-.12-6.39.09-.23.05-.33.2-.21.32.54.56 2.12 1.98 4.69 2.55h.04c.17.05.2.18.05.24-.17.07-.34.14-.51.22-2.11 1.03-2.81 2.67-3.01 3.31-.04.14.14.27.38.27 1.1 0 3.98-.11 6.09-1.14.15-.08.37-.01.37.1 0 1.61 1.7 2.98 2.4 3.47.15.11.44.11.59 0 .7-.49 2.4-1.86 2.4-3.47 0-.12.22-.18.37-.11 2.11 1.03 4.99 1.14 6.09 1.14.24 0 .42-.13.38-.27-.2-.63-.9-2.27-3.01-3.31Z" style="fill:#00a155;stroke-width:0"/><path d="M132.84 114.41c-.71 0-1.29-.57-1.29-1.28 0-3.32 1.56-6.25 3.83-7.85.58-.41 1.39-.28 1.81.3.41.57.28 1.36-.28 1.77 0 0-.01 0-.02.01-1.64 1.16-2.74 3.3-2.74 5.77 0 .71-.58 1.28-1.29 1.28Z" style="fill:#006539;stroke-width:0"/><path d="M132.78 153.8c14.55 0 26.35-8.88 26.35-21.6s-7.95-20.49-26.35-20.62c-18.4-.12-26.35 7.9-26.35 20.62s11.8 21.6 26.35 21.6Z" style="fill:#b53e26;fill-rule:evenodd;stroke-width:0"/><path d="M139.31 113.69c-.17-.08-.34-.16-.51-.22-.15-.06-.12-.2.05-.23h.04c2.57-.58 4.14-2 4.69-2.55.12-.12.02-.28-.21-.32-1.04-.21-3.82-.66-6.39-.09a9.68 9.68 0 0 0-4.02 1.94c-.09.07-.28.07-.37 0a9.649 9.649 0 0 0-4.02-1.94c-2.57-.57-5.35-.12-6.39.09-.23.05-.33.2-.21.32.54.56 2.12 1.98 4.69 2.55h.04c.17.05.2.18.05.24-.17.07-.34.14-.51.22-2.11 1.03-2.81 2.67-3.01 3.31-.04.14.14.27.38.27 1.1 0 3.98-.11 6.09-1.14.15-.08.37-.01.37.1 0 1.61 1.7 2.98 2.4 3.47.15.11.44.11.59 0 .7-.49 2.4-1.86 2.4-3.47 0-.12.22-.18.37-.11 2.11 1.03 4.99 1.14 6.09 1.14.24 0 .42-.13.38-.27-.2-.63-.9-2.27-3.01-3.31Z" style="fill:#00a155;stroke-width:0"/><path d="M132.84 114.41c-.71 0-1.29-.57-1.29-1.28 0-3.32 1.56-6.25 3.83-7.85.58-.41 1.39-.28 1.81.3.41.57.28 1.36-.28 1.77 0 0-.01 0-.02.01-1.64 1.16-2.74 3.3-2.74 5.77 0 .71-.58 1.28-1.29 1.28Z" style="fill:#006539;stroke-width:0"/><path d="M228.11 155.88c14.55 0 26.35-8.88 26.35-21.6s-7.95-20.49-26.35-20.62c-18.4-.12-26.35 7.9-26.35 20.62s11.8 21.6 26.35 21.6Z" style="fill:#da3b1b;fill-rule:evenodd;stroke-width:0"/><path d="M234.64 115.78c-.17-.08-.34-.16-.51-.22-.15-.06-.12-.2.05-.23h.04c2.57-.58 4.14-2 4.69-2.55.12-.12.02-.28-.21-.32-1.04-.21-3.82-.66-6.39-.09a9.68 9.68 0 0 0-4.02 1.94c-.09.07-.28.07-.37 0a9.649 9.649 0 0 0-4.02-1.94c-2.57-.57-5.35-.12-6.39.09-.23.05-.33.2-.21.32.54.56 2.12 1.98 4.69 2.55h.04c.17.05.2.18.05.24-.17.07-.34.14-.51.22-2.11 1.03-2.81 2.67-3.01 3.31-.04.14.14.27.38.27 1.1 0 3.98-.11 6.09-1.14.15-.08.37-.01.37.1 0 1.61 1.7 2.98 2.4 3.47.15.11.44.11.59 0 .7-.49 2.4-1.86 2.4-3.47 0-.12.22-.18.37-.11 2.11 1.03 4.99 1.14 6.09 1.14.24 0 .42-.13.38-.27-.2-.63-.9-2.27-3.01-3.31Z" style="fill:#00a155;stroke-width:0"/><path d="M228.18 116.49c-.71 0-1.29-.57-1.29-1.28 0-3.32 1.56-6.25 3.83-7.85.58-.41 1.39-.28 1.81.3.41.57.28 1.36-.28 1.77 0 0-.01 0-.02.01-1.64 1.16-2.74 3.3-2.74 5.77 0 .71-.58 1.28-1.29 1.28Z" style="fill:#006539;stroke-width:0"/><path d="M228.11 155.88c14.55 0 26.35-8.88 26.35-21.6s-7.95-20.49-26.35-20.62c-18.4-.12-26.35 7.9-26.35 20.62s11.8 21.6 26.35 21.6Z" style="fill:#da3b1b;fill-rule:evenodd;stroke-width:0"/><path d="M234.64 115.78c-.17-.08-.34-.16-.51-.22-.15-.06-.12-.2.05-.23h.04c2.57-.58 4.14-2 4.69-2.55.12-.12.02-.28-.21-.32-1.04-.21-3.82-.66-6.39-.09a9.68 9.68 0 0 0-4.02 1.94c-.09.07-.28.07-.37 0a9.649 9.649 0 0 0-4.02-1.94c-2.57-.57-5.35-.12-6.39.09-.23.05-.33.2-.21.32.54.56 2.12 1.98 4.69 2.55h.04c.17.05.2.18.05.24-.17.07-.34.14-.51.22-2.11 1.03-2.81 2.67-3.01 3.31-.04.14.14.27.38.27 1.1 0 3.98-.11 6.09-1.14.15-.08.37-.01.37.1 0 1.61 1.7 2.98 2.4 3.47.15.11.44.11.59 0 .7-.49 2.4-1.86 2.4-3.47 0-.12.22-.18.37-.11 2.11 1.03 4.99 1.14 6.09 1.14.24 0 .42-.13.38-.27-.2-.63-.9-2.27-3.01-3.31Z" style="fill:#00a155;stroke-width:0"/><path d="M228.18 116.49c-.71 0-1.29-.57-1.29-1.28 0-3.32 1.56-6.25 3.83-7.85.58-.41 1.39-.28 1.81.3.41.57.28 1.36-.28 1.77 0 0-.01 0-.02.01-1.64 1.16-2.74 3.3-2.74 5.77 0 .71-.58 1.28-1.29 1.28Z" style="fill:#006539;stroke-width:0"/><path d="M108.96 180.23c14.55 0 26.35-8.88 26.35-21.6s-7.95-20.49-26.35-20.62c-18.4-.12-26.35 7.9-26.35 20.62s11.8 21.6 26.35 21.6Z" style="fill:#da3b1b;fill-rule:evenodd;stroke-width:0"/><path d="M115.49 140.12c-.17-.08-.34-.16-.51-.22-.15-.06-.12-.2.05-.23h.04c2.57-.58 4.14-2 4.69-2.55.12-.12.02-.28-.21-.32-1.04-.21-3.82-.66-6.39-.09a9.68 9.68 0 0 0-4.02 1.94c-.09.07-.28.07-.37 0a9.649 9.649 0 0 0-4.02-1.94c-2.57-.57-5.35-.12-6.39.09-.23.05-.33.2-.21.32.54.56 2.12 1.98 4.69 2.55h.04c.17.05.2.18.05.24-.17.07-.34.14-.51.22-2.11 1.03-2.81 2.67-3.01 3.31-.04.14.14.27.38.27 1.1 0 3.98-.11 6.09-1.14.15-.08.37-.01.37.1 0 1.61 1.7 2.98 2.4 3.47.15.11.44.11.59 0 .7-.49 2.4-1.86 2.4-3.47 0-.12.22-.18.37-.11 2.11 1.03 4.99 1.14 6.09 1.14.24 0 .42-.13.38-.27-.2-.63-.9-2.27-3.01-3.31Z" style="fill:#00a155;stroke-width:0"/><path d="M109.02 140.84c-.71 0-1.29-.57-1.29-1.28 0-3.32 1.56-6.25 3.83-7.85.58-.41 1.39-.28 1.81.3.41.57.28 1.36-.28 1.77 0 0-.01 0-.02.01-1.64 1.16-2.74 3.3-2.74 5.77 0 .71-.58 1.28-1.29 1.28Z" style="fill:#006539;stroke-width:0"/><path d="M108.96 180.23c14.55 0 26.35-8.88 26.35-21.6s-7.95-20.49-26.35-20.62c-18.4-.12-26.35 7.9-26.35 20.62s11.8 21.6 26.35 21.6Z" style="fill:#dbc05c;fill-rule:evenodd;stroke-width:0"/><path d="M115.49 140.12c-.17-.08-.34-.16-.51-.22-.15-.06-.12-.2.05-.23h.04c2.57-.58 4.14-2 4.69-2.55.12-.12.02-.28-.21-.32-1.04-.21-3.82-.66-6.39-.09a9.68 9.68 0 0 0-4.02 1.94c-.09.07-.28.07-.37 0a9.649 9.649 0 0 0-4.02-1.94c-2.57-.57-5.35-.12-6.39.09-.23.05-.33.2-.21.32.54.56 2.12 1.98 4.69 2.55h.04c.17.05.2.18.05.24-.17.07-.34.14-.51.22-2.11 1.03-2.81 2.67-3.01 3.31-.04.14.14.27.38.27 1.1 0 3.98-.11 6.09-1.14.15-.08.37-.01.37.1 0 1.61 1.7 2.98 2.4 3.47.15.11.44.11.59 0 .7-.49 2.4-1.86 2.4-3.47 0-.12.22-.18.37-.11 2.11 1.03 4.99 1.14 6.09 1.14.24 0 .42-.13.38-.27-.2-.63-.9-2.27-3.01-3.31Z" style="fill:#00a155;stroke-width:0"/><path d="M109.02 140.84c-.71 0-1.29-.57-1.29-1.28 0-3.32 1.56-6.25 3.83-7.85.58-.41 1.39-.28 1.81.3.41.57.28 1.36-.28 1.77 0 0-.01 0-.02.01-1.64 1.16-2.74 3.3-2.74 5.77 0 .71-.58 1.28-1.29 1.28Z" style="fill:#006539;stroke-width:0"/><path d="M208.63 176.58c14.55 0 26.35-8.88 26.35-21.6s-7.95-20.49-26.35-20.62c-18.4-.12-26.35 7.9-26.35 20.62s11.8 21.6 26.35 21.6Z" style="fill:#da3b1b;fill-rule:evenodd;stroke-width:0"/><path d="M215.16 136.48c-.17-.08-.34-.16-.51-.22-.15-.06-.12-.2.05-.23h.04c2.57-.58 4.14-2 4.69-2.55.12-.12.02-.28-.21-.32-1.04-.21-3.82-.66-6.39-.09a9.68 9.68 0 0 0-4.02 1.94c-.09.07-.28.07-.37 0a9.649 9.649 0 0 0-4.02-1.94c-2.57-.57-5.35-.12-6.39.09-.23.05-.33.2-.21.32.54.56 2.12 1.98 4.69 2.55h.04c.17.05.2.18.05.24-.17.07-.34.14-.51.22-2.11 1.03-2.81 2.67-3.01 3.31-.04.14.14.27.38.27 1.1 0 3.98-.11 6.09-1.14.15-.08.37-.01.37.1 0 1.61 1.7 2.98 2.4 3.47.15.11.44.11.59 0 .7-.49 2.4-1.86 2.4-3.47 0-.12.22-.18.37-.11 2.11 1.03 4.99 1.14 6.09 1.14.24 0 .42-.13.38-.27-.2-.63-.9-2.27-3.01-3.31Z" style="fill:#00a155;stroke-width:0"/><path d="M208.69 137.19c-.71 0-1.29-.57-1.29-1.28 0-3.32 1.56-6.25 3.83-7.85.58-.41 1.39-.28 1.81.3.41.57.28 1.36-.28 1.77 0 0-.01 0-.02.01-1.64 1.16-2.74 3.3-2.74 5.77 0 .71-.58 1.28-1.29 1.28Z" style="fill:#006539;stroke-width:0"/><path d="M208.63 176.58c14.55 0 26.35-8.88 26.35-21.6s-7.95-20.49-26.35-20.62c-18.4-.12-26.35 7.9-26.35 20.62s11.8 21.6 26.35 21.6Z" style="fill:#b53e26;fill-rule:evenodd;stroke-width:0"/><path d="M215.16 136.48c-.17-.08-.34-.16-.51-.22-.15-.06-.12-.2.05-.23h.04c2.57-.58 4.14-2 4.69-2.55.12-.12.02-.28-.21-.32-1.04-.21-3.82-.66-6.39-.09a9.68 9.68 0 0 0-4.02 1.94c-.09.07-.28.07-.37 0a9.649 9.649 0 0 0-4.02-1.94c-2.57-.57-5.35-.12-6.39.09-.23.05-.33.2-.21.32.54.56 2.12 1.98 4.69 2.55h.04c.17.05.2.18.05.24-.17.07-.34.14-.51.22-2.11 1.03-2.81 2.67-3.01 3.31-.04.14.14.27.38.27 1.1 0 3.98-.11 6.09-1.14.15-.08.37-.01.37.1 0 1.61 1.7 2.98 2.4 3.47.15.11.44.11.59 0 .7-.49 2.4-1.86 2.4-3.47 0-.12.22-.18.37-.11 2.11 1.03 4.99 1.14 6.09 1.14.24 0 .42-.13.38-.27-.2-.63-.9-2.27-3.01-3.31Z" style="fill:#00a155;stroke-width:0"/><path d="M208.69 137.19c-.71 0-1.29-.57-1.29-1.28 0-3.32 1.56-6.25 3.83-7.85.58-.41 1.39-.28 1.81.3.41.57.28 1.36-.28 1.77 0 0-.01 0-.02.01-1.64 1.16-2.74 3.3-2.74 5.77 0 .71-.58 1.28-1.29 1.28Z" style="fill:#006539;stroke-width:0"/><path d="M160.27 184.9c14.55 0 26.35-8.88 26.35-21.6s-7.95-20.49-26.35-20.62c-18.4-.12-26.35 7.9-26.35 20.62s11.8 21.6 26.35 21.6Z" style="fill:#da3b1b;fill-rule:evenodd;stroke-width:0"/><path d="M166.8 144.79c-.17-.08-.34-.16-.51-.22-.15-.06-.12-.2.05-.23h.04c2.57-.58 4.14-2 4.69-2.55.12-.12.02-.28-.21-.32-1.04-.21-3.82-.66-6.39-.09a9.68 9.68 0 0 0-4.02 1.94c-.09.07-.28.07-.37 0a9.649 9.649 0 0 0-4.02-1.94c-2.57-.57-5.35-.12-6.39.09-.23.05-.33.2-.21.32.54.56 2.12 1.98 4.69 2.55h.04c.17.05.2.18.05.24-.17.07-.34.14-.51.22-2.11 1.03-2.81 2.67-3.01 3.31-.04.14.14.27.38.27 1.1 0 3.98-.11 6.09-1.14.15-.08.37-.01.37.1 0 1.61 1.7 2.98 2.4 3.47.15.11.44.11.59 0 .7-.49 2.4-1.86 2.4-3.47 0-.12.22-.18.37-.11 2.11 1.03 4.99 1.14 6.09 1.14.24 0 .42-.13.38-.27-.2-.63-.9-2.27-3.01-3.31Z" style="fill:#00a155;stroke-width:0"/><path d="M160.33 145.51c-.71 0-1.29-.57-1.29-1.28 0-3.32 1.56-6.25 3.83-7.85.58-.41 1.39-.28 1.81.3.41.57.28 1.36-.28 1.77 0 0-.01 0-.02.01-1.64 1.16-2.74 3.3-2.74 5.77 0 .71-.58 1.28-1.29 1.28Z" style="fill:#006539;stroke-width:0"/><path d="M160.27 184.9c14.55 0 26.35-8.88 26.35-21.6s-7.95-20.49-26.35-20.62c-18.4-.12-26.35 7.9-26.35 20.62s11.8 21.6 26.35 21.6Z" style="fill:#da3b1b;fill-rule:evenodd;stroke-width:0"/><path d="M166.8 144.79c-.17-.08-.34-.16-.51-.22-.15-.06-.12-.2.05-.23h.04c2.57-.58 4.14-2 4.69-2.55.12-.12.02-.28-.21-.32-1.04-.21-3.82-.66-6.39-.09a9.68 9.68 0 0 0-4.02 1.94c-.09.07-.28.07-.37 0a9.649 9.649 0 0 0-4.02-1.94c-2.57-.57-5.35-.12-6.39.09-.23.05-.33.2-.21.32.54.56 2.12 1.98 4.69 2.55h.04c.17.05.2.18.05.24-.17.07-.34.14-.51.22-2.11 1.03-2.81 2.67-3.01 3.31-.04.14.14.27.38.27 1.1 0 3.98-.11 6.09-1.14.15-.08.37-.01.37.1 0 1.61 1.7 2.98 2.4 3.47.15.11.44.11.59 0 .7-.49 2.4-1.86 2.4-3.47 0-.12.22-.18.37-.11 2.11 1.03 4.99 1.14 6.09 1.14.24 0 .42-.13.38-.27-.2-.63-.9-2.27-3.01-3.31Z" style="fill:#00a155;stroke-width:0"/><path d="M160.33 145.51c-.71 0-1.29-.57-1.29-1.28 0-3.32 1.56-6.25 3.83-7.85.58-.41 1.39-.28 1.81.3.41.57.28 1.36-.28 1.77 0 0-.01 0-.02.01-1.64 1.16-2.74 3.3-2.74 5.77 0 .71-.58 1.28-1.29 1.28Z" style="fill:#006539;stroke-width:0"/><path d="M254.46 188.25c14.55 0 26.35-8.88 26.35-21.6s-7.95-20.49-26.35-20.62c-18.4-.12-26.35 7.9-26.35 20.62s11.8 21.6 26.35 21.6Z" style="fill:#da3b1b;fill-rule:evenodd;stroke-width:0"/><path d="M261 148.14c-.17-.08-.34-.16-.51-.22-.15-.06-.12-.2.05-.23h.04c2.57-.58 4.14-2 4.69-2.55.12-.12.02-.28-.21-.32-1.04-.21-3.82-.66-6.39-.09a9.68 9.68 0 0 0-4.02 1.94c-.09.07-.28.07-.37 0a9.649 9.649 0 0 0-4.02-1.94c-2.57-.57-5.35-.12-6.39.09-.23.05-.33.2-.21.32.54.56 2.12 1.98 4.69 2.55h.04c.17.05.2.18.05.24-.17.07-.34.14-.51.22-2.11 1.03-2.81 2.67-3.01 3.31-.04.14.14.27.38.27 1.1 0 3.98-.11 6.09-1.14.15-.08.37-.01.37.1 0 1.61 1.7 2.98 2.4 3.47.15.11.44.11.59 0 .7-.49 2.4-1.86 2.4-3.47 0-.12.22-.18.37-.11 2.11 1.03 4.99 1.14 6.09 1.14.24 0 .42-.13.38-.27-.2-.63-.9-2.27-3.01-3.31Z" style="fill:#00a155;stroke-width:0"/><path d="M254.53 148.86c-.71 0-1.29-.57-1.29-1.28 0-3.32 1.56-6.25 3.83-7.85.58-.41 1.39-.28 1.81.3.41.57.28 1.36-.28 1.77 0 0-.01 0-.02.01-1.64 1.16-2.74 3.3-2.74 5.77 0 .71-.58 1.28-1.29 1.28Z" style="fill:#006539;stroke-width:0"/><path d="M254.46 188.25c14.55 0 26.35-8.88 26.35-21.6s-7.95-20.49-26.35-20.62c-18.4-.12-26.35 7.9-26.35 20.62s11.8 21.6 26.35 21.6Z" style="fill:#da3b1b;fill-rule:evenodd;stroke-width:0"/><path d="M261 148.14c-.17-.08-.34-.16-.51-.22-.15-.06-.12-.2.05-.23h.04c2.57-.58 4.14-2 4.69-2.55.12-.12.02-.28-.21-.32-1.04-.21-3.82-.66-6.39-.09a9.68 9.68 0 0 0-4.02 1.94c-.09.07-.28.07-.37 0a9.649 9.649 0 0 0-4.02-1.94c-2.57-.57-5.35-.12-6.39.09-.23.05-.33.2-.21.32.54.56 2.12 1.98 4.69 2.55h.04c.17.05.2.18.05.24-.17.07-.34.14-.51.22-2.11 1.03-2.81 2.67-3.01 3.31-.04.14.14.27.38.27 1.1 0 3.98-.11 6.09-1.14.15-.08.37-.01.37.1 0 1.61 1.7 2.98 2.4 3.47.15.11.44.11.59 0 .7-.49 2.4-1.86 2.4-3.47 0-.12.22-.18.37-.11 2.11 1.03 4.99 1.14 6.09 1.14.24 0 .42-.13.38-.27-.2-.63-.9-2.27-3.01-3.31Z" style="fill:#00a155;stroke-width:0"/><path d="M254.53 148.86c-.71 0-1.29-.57-1.29-1.28 0-3.32 1.56-6.25 3.83-7.85.58-.41 1.39-.28 1.81.3.41.57.28 1.36-.28 1.77 0 0-.01 0-.02.01-1.64 1.16-2.74 3.3-2.74 5.77 0 .71-.58 1.28-1.29 1.28Z" style="fill:#006539;stroke-width:0"/><path d="M133.88 225.13c17.69 0 32.03-10.79 32.03-26.25s-9.67-24.91-32.03-25.06c-22.36-.15-32.03 9.6-32.03 25.06s14.34 26.25 32.03 26.25Z" style="fill:#da3b1b;fill-rule:evenodd;stroke-width:0"/><path d="M141.82 176.38c-.2-.1-.41-.19-.62-.27-.18-.07-.14-.24.06-.28h.04c3.12-.7 5.04-2.42 5.69-3.1.14-.15.02-.34-.25-.39-1.26-.25-4.64-.8-7.76-.11-2.28.51-3.91 1.56-4.89 2.36-.11.09-.34.09-.45 0-1.42-1.16-3.1-1.96-4.89-2.36-3.12-.69-6.5-.14-7.76.11-.28.06-.4.24-.25.39.66.68 2.58 2.4 5.7 3.09h.04c.21.05.25.22.06.29-.21.08-.42.18-.62.27-2.56 1.25-3.41 3.25-3.65 4.02-.05.17.17.32.46.32 1.33 0 4.83-.13 7.4-1.39.18-.09.45-.02.45.12 0 1.96 2.07 3.62 2.92 4.22.19.13.53.13.72 0 .85-.6 2.92-2.26 2.92-4.22 0-.14.27-.22.45-.13 2.56 1.25 6.06 1.39 7.4 1.39.29 0 .51-.16.46-.32-.24-.77-1.09-2.76-3.66-4.02Z" style="fill:#00a155;stroke-width:0"/><path d="M133.96 177.25c-.87 0-1.57-.7-1.57-1.55 0-4.03 1.89-7.6 4.65-9.54.71-.5 1.69-.34 2.19.36.5.69.34 1.65-.34 2.15l-.02.02c-2 1.41-3.33 4.01-3.33 7.01 0 .86-.7 1.55-1.57 1.55Z" style="fill:#006539;stroke-width:0"/><path d="M167.81 185.82c-7.4-1.15-21.51-1.37-31.68 1.37h-4.39c-10.17-2.75-24.28-2.51-31.68-1.37-.92.23-.92 4.11-.23 4.34 1.39.68 2.08 2.06 2.08 2.06s.46 1.37 1.62 6.4c1.15 5.04 4.16 5.97 4.16 5.97s3.7.91 7.86.91 6.71-.23 9.48-1.6c2.77-1.38 3.93-5.03 3.93-5.03s1.39-3.2 2.31-6.17c.23-.92 4.86-.92 5.09 0 .92 2.98 2.31 6.17 2.31 6.17s1.16 3.66 3.93 5.03c2.78 1.37 5.32 1.6 9.48 1.6s7.86-.91 7.86-.91 3.01-.68 4.16-5.94c1.16-5.26 1.62-6.4 1.62-6.4s.69-1.37 2.08-2.06c.94-.24.94-4.36.01-4.36Z" style="fill:#000;stroke-width:0"/><path d="M133.88 225.13c17.69 0 32.03-10.79 32.03-26.25s-9.67-24.91-32.03-25.06c-22.36-.15-32.03 9.6-32.03 25.06s14.34 26.25 32.03 26.25Z" style="fill:#b53e26;fill-rule:evenodd;stroke-width:0"/><path d="M141.82 176.38c-.2-.1-.41-.19-.62-.27-.18-.07-.14-.24.06-.28h.04c3.12-.7 5.04-2.42 5.69-3.1.14-.15.02-.34-.25-.39-1.26-.25-4.64-.8-7.76-.11-2.28.51-3.91 1.56-4.89 2.36-.11.09-.34.09-.45 0-1.42-1.16-3.1-1.96-4.89-2.36-3.12-.69-6.5-.14-7.76.11-.28.06-.4.24-.25.39.66.68 2.58 2.4 5.7 3.09h.04c.21.05.25.22.06.29-.21.08-.42.18-.62.27-2.56 1.25-3.41 3.25-3.65 4.02-.05.17.17.32.46.32 1.33 0 4.83-.13 7.4-1.39.18-.09.45-.02.45.12 0 1.96 2.07 3.62 2.92 4.22.19.13.53.13.72 0 .85-.6 2.92-2.26 2.92-4.22 0-.14.27-.22.45-.13 2.56 1.25 6.06 1.39 7.4 1.39.29 0 .51-.16.46-.32-.24-.77-1.09-2.76-3.66-4.02Z" style="fill:#00a155;stroke-width:0"/><path d="M133.96 177.25c-.87 0-1.57-.7-1.57-1.55 0-4.03 1.89-7.6 4.65-9.54.71-.5 1.69-.34 2.19.36.5.69.34 1.65-.34 2.15l-.02.02c-2 1.41-3.33 4.01-3.33 7.01 0 .86-.7 1.55-1.57 1.55Z" style="fill:#006539;stroke-width:0"/><path d="M167.81 185.82c-7.4-1.15-21.51-1.37-31.68 1.37h-4.39c-10.17-2.75-24.28-2.51-31.68-1.37-.92.23-.92 4.11-.23 4.34 1.39.68 2.08 2.06 2.08 2.06s.46 1.37 1.62 6.4c1.15 5.04 4.16 5.97 4.16 5.97s3.7.91 7.86.91 6.71-.23 9.48-1.6c2.77-1.38 3.93-5.03 3.93-5.03s1.39-3.2 2.31-6.17c.23-.92 4.86-.92 5.09 0 .92 2.98 2.31 6.17 2.31 6.17s1.16 3.66 3.93 5.03c2.78 1.37 5.32 1.6 9.48 1.6s7.86-.91 7.86-.91 3.01-.68 4.16-5.94c1.16-5.26 1.62-6.4 1.62-6.4s.69-1.37 2.08-2.06c.94-.24.94-4.36.01-4.36Z" style="fill:#000;stroke-width:0"/><path d="M208.59 219.78c17.69 0 32.03-10.79 32.03-26.25s-9.67-24.91-32.03-25.06c-22.36-.15-32.03 9.6-32.03 25.06s14.34 26.25 32.03 26.25Z" style="fill:#da3b1b;fill-rule:evenodd;stroke-width:0"/><path d="M216.53 171.04c-.2-.1-.41-.19-.62-.27-.18-.07-.14-.24.06-.28h.04c3.12-.7 5.04-2.42 5.69-3.1.14-.15.02-.34-.25-.39-1.26-.25-4.64-.8-7.76-.11-2.28.51-3.91 1.56-4.89 2.36-.11.09-.34.09-.45 0-1.42-1.16-3.1-1.96-4.89-2.36-3.12-.69-6.5-.14-7.76.11-.28.06-.4.24-.25.39.66.68 2.58 2.4 5.7 3.09h.04c.21.05.25.22.06.29-.21.08-.42.18-.62.27-2.56 1.25-3.41 3.25-3.65 4.02-.05.17.17.32.46.32 1.33 0 4.83-.13 7.4-1.39.18-.09.45-.02.45.12 0 1.96 2.07 3.62 2.92 4.22.19.13.53.13.72 0 .85-.6 2.92-2.26 2.92-4.22 0-.14.27-.22.45-.13 2.56 1.25 6.06 1.39 7.4 1.39.29 0 .51-.16.46-.32-.24-.77-1.09-2.76-3.66-4.02Z" style="fill:#00a155;stroke-width:0"/><path d="M208.67 171.91c-.87 0-1.57-.7-1.57-1.55 0-4.03 1.89-7.6 4.65-9.54.71-.5 1.69-.34 2.19.36.5.69.34 1.65-.34 2.15l-.02.02c-2 1.41-3.33 4.01-3.33 7.01 0 .86-.7 1.55-1.57 1.55Z" style="fill:#006539;stroke-width:0"/><path d="M242.52 180.47c-7.4-1.15-21.51-1.37-31.68 1.37h-4.39c-10.17-2.75-24.28-2.51-31.68-1.37-.92.23-.92 4.11-.23 4.34 1.39.68 2.08 2.06 2.08 2.06s.46 1.37 1.62 6.4c1.15 5.04 4.16 5.97 4.16 5.97s3.7.91 7.86.91 6.71-.23 9.48-1.6c2.77-1.38 3.93-5.03 3.93-5.03s1.39-3.2 2.31-6.17c.23-.92 4.86-.92 5.09 0 .92 2.98 2.31 6.17 2.31 6.17s1.16 3.66 3.93 5.03c2.78 1.37 5.32 1.6 9.48 1.6s7.86-.91 7.86-.91 3.01-.68 4.16-5.94c1.16-5.26 1.62-6.4 1.62-6.4s.69-1.37 2.08-2.06c.94-.24.94-4.36.01-4.36Z" style="fill:#000;stroke-width:0"/><path d="M208.59 219.78c17.69 0 32.03-10.79 32.03-26.25s-9.67-24.91-32.03-25.06c-22.36-.15-32.03 9.6-32.03 25.06s14.34 26.25 32.03 26.25Z" style="fill:#da3b1b;fill-rule:evenodd;stroke-width:0"/><path d="M216.53 171.04c-.2-.1-.41-.19-.62-.27-.18-.07-.14-.24.06-.28h.04c3.12-.7 5.04-2.42 5.69-3.1.14-.15.02-.34-.25-.39-1.26-.25-4.64-.8-7.76-.11-2.28.51-3.91 1.56-4.89 2.36-.11.09-.34.09-.45 0-1.42-1.16-3.1-1.96-4.89-2.36-3.12-.69-6.5-.14-7.76.11-.28.06-.4.24-.25.39.66.68 2.58 2.4 5.7 3.09h.04c.21.05.25.22.06.29-.21.08-.42.18-.62.27-2.56 1.25-3.41 3.25-3.65 4.02-.05.17.17.32.46.32 1.33 0 4.83-.13 7.4-1.39.18-.09.45-.02.45.12 0 1.96 2.07 3.62 2.92 4.22.19.13.53.13.72 0 .85-.6 2.92-2.26 2.92-4.22 0-.14.27-.22.45-.13 2.56 1.25 6.06 1.39 7.4 1.39.29 0 .51-.16.46-.32-.24-.77-1.09-2.76-3.66-4.02Z" style="fill:#00a155;stroke-width:0"/><path d="M208.67 171.91c-.87 0-1.57-.7-1.57-1.55 0-4.03 1.89-7.6 4.65-9.54.71-.5 1.69-.34 2.19.36.5.69.34 1.65-.34 2.15l-.02.02c-2 1.41-3.33 4.01-3.33 7.01 0 .86-.7 1.55-1.57 1.55Z" style="fill:#006539;stroke-width:0"/><path d="M242.52 180.47c-7.4-1.15-21.51-1.37-31.68 1.37h-4.39c-10.17-2.75-24.28-2.51-31.68-1.37-.92.23-.92 4.11-.23 4.34 1.39.68 2.08 2.06 2.08 2.06s.46 1.37 1.62 6.4c1.15 5.04 4.16 5.97 4.16 5.97s3.7.91 7.86.91 6.71-.23 9.48-1.6c2.77-1.38 3.93-5.03 3.93-5.03s1.39-3.2 2.31-6.17c.23-.92 4.86-.92 5.09 0 .92 2.98 2.31 6.17 2.31 6.17s1.16 3.66 3.93 5.03c2.78 1.37 5.32 1.6 9.48 1.6s7.86-.91 7.86-.91 3.01-.68 4.16-5.94c1.16-5.26 1.62-6.4 1.62-6.4s.69-1.37 2.08-2.06c.94-.24.94-4.36.01-4.36Z" style="fill:#000;stroke-width:0"/><path d="M175.28 271.67c20.99 0 38-12.81 38-31.15s-11.47-29.55-38-29.73c-26.53-.17-38 11.39-38 29.73s17.01 31.15 38 31.15Z" style="fill:#da3b1b;fill-rule:evenodd;stroke-width:0"/><path d="M184.7 213.83c-.24-.12-.48-.22-.73-.32-.22-.09-.17-.28.08-.33h.05c3.7-.83 5.98-2.88 6.76-3.68.17-.18.03-.4-.3-.47-1.49-.3-5.51-.95-9.21-.13-2.7.6-4.64 1.85-5.8 2.8-.13.11-.4.11-.53 0a13.99 13.99 0 0 0-5.8-2.8c-3.7-.82-7.72-.17-9.21.13-.33.07-.47.29-.3.47.78.81 3.06 2.85 6.76 3.67h.05c.25.07.29.26.08.35-.25.1-.49.21-.73.32-3.04 1.49-4.05 3.85-4.34 4.77-.06.2.2.38.55.38 1.58 0 5.74-.16 8.78-1.64.22-.11.54-.02.54.14 0 2.33 2.46 4.3 3.47 5.01.22.16.63.16.85 0 1.01-.71 3.46-2.68 3.46-5.01 0-.17.32-.26.54-.15 3.04 1.49 7.19 1.65 8.78 1.65.35 0 .61-.18.55-.38-.29-.91-1.3-3.28-4.34-4.77Z" style="fill:#00a155;stroke-width:0"/><path d="M175.37 214.86c-1.03 0-1.87-.83-1.87-1.84 0-4.78 2.25-9.01 5.52-11.32.84-.59 2-.4 2.6.43.59.82.41 1.96-.41 2.55 0 0-.02.01-.03.02-2.37 1.67-3.96 4.76-3.96 8.32 0 1.02-.84 1.84-1.87 1.84Z" style="fill:#006539;stroke-width:0"/><path d="M215.53 225.02c-8.78-1.36-25.53-1.63-37.6 1.63h-5.21c-12.07-3.26-28.81-2.98-37.6-1.63-1.09.27-1.09 4.88-.27 5.15 1.65.81 2.47 2.44 2.47 2.44s.55 1.63 1.92 7.59c1.36 5.99 4.94 7.08 4.94 7.08s4.39 1.08 9.33 1.08 7.96-.27 11.25-1.9 4.66-5.97 4.66-5.97 1.65-3.8 2.74-7.32c.27-1.09 5.77-1.09 6.04 0 1.09 3.53 2.74 7.32 2.74 7.32s1.38 4.34 4.66 5.97c3.3 1.63 6.31 1.9 11.25 1.9s9.33-1.08 9.33-1.08 3.57-.81 4.94-7.05c1.38-6.24 1.92-7.59 1.92-7.59s.82-1.63 2.47-2.44c1.12-.28 1.12-5.18.01-5.18Z" style="fill:#000;stroke-width:0"/><path d="M175.28 271.67c20.99 0 38-12.81 38-31.15s-11.47-29.55-38-29.73c-26.53-.17-38 11.39-38 29.73s17.01 31.15 38 31.15Z" style="fill:#da3b1b;fill-rule:evenodd;stroke-width:0"/><path d="M184.7 213.83c-.24-.12-.48-.22-.73-.32-.22-.09-.17-.28.08-.33h.05c3.7-.83 5.98-2.88 6.76-3.68.17-.18.03-.4-.3-.47-1.49-.3-5.51-.95-9.21-.13-2.7.6-4.64 1.85-5.8 2.8-.13.11-.4.11-.53 0a13.99 13.99 0 0 0-5.8-2.8c-3.7-.82-7.72-.17-9.21.13-.33.07-.47.29-.3.47.78.81 3.06 2.85 6.76 3.67h.05c.25.07.29.26.08.35-.25.1-.49.21-.73.32-3.04 1.49-4.05 3.85-4.34 4.77-.06.2.2.38.55.38 1.58 0 5.74-.16 8.78-1.64.22-.11.54-.02.54.14 0 2.33 2.46 4.3 3.47 5.01.22.16.63.16.85 0 1.01-.71 3.46-2.68 3.46-5.01 0-.17.32-.26.54-.15 3.04 1.49 7.19 1.65 8.78 1.65.35 0 .61-.18.55-.38-.29-.91-1.3-3.28-4.34-4.77Z" style="fill:#00a155;stroke-width:0"/><path d="M175.37 214.86c-1.03 0-1.87-.83-1.87-1.84 0-4.78 2.25-9.01 5.52-11.32.84-.59 2-.4 2.6.43.59.82.41 1.96-.41 2.55 0 0-.02.01-.03.02-2.37 1.67-3.96 4.76-3.96 8.32 0 1.02-.84 1.84-1.87 1.84Z" style="fill:#006539;stroke-width:0"/><path d="M215.53 225.02c-8.78-1.36-25.53-1.63-37.6 1.63h-5.21c-12.07-3.26-28.81-2.98-37.6-1.63-1.09.27-1.09 4.88-.27 5.15 1.65.81 2.47 2.44 2.47 2.44s.55 1.63 1.92 7.59c1.36 5.99 4.94 7.08 4.94 7.08s4.39 1.08 9.33 1.08 7.96-.27 11.25-1.9 4.66-5.97 4.66-5.97 1.65-3.8 2.74-7.32c.27-1.09 5.77-1.09 6.04 0 1.09 3.53 2.74 7.32 2.74 7.32s1.38 4.34 4.66 5.97c3.3 1.63 6.31 1.9 11.25 1.9s9.33-1.08 9.33-1.08 3.57-.81 4.94-7.05c1.38-6.24 1.92-7.59 1.92-7.59s.82-1.63 2.47-2.44c1.12-.28 1.12-5.18.01-5.18Z" style="fill:#000;stroke-width:0"/></svg>
