<svg xmlns="http://www.w3.org/2000/svg" viewBox="0 0 216 216"><circle cx="107.09" cy="110.95" r="75" style="fill:#c6fce3;stroke-width:0"/><path d="M137 100.19v.05l-.01-.05-.3-2.49.31 2.49zM157.53 97.7l-.3 2.49-.01.05v-.05l.31-2.49z" style="fill:#99fff3;stroke-width:0"/><path d="m157.53 97.7-.3 2.49-.01.05v-.05l.31-2.49zM137 100.19v.05l-.01-.05-.3-2.49.31 2.49zM140.01 113.85h-.24v-.03c.08.02.16.03.24.03ZM154.52 113.81v.04h-.31c.1 0 .21-.01.31-.04Z" style="fill:#99fff3;stroke-width:0"/><path d="m157.53 97.7-.3 2.49h-.01l.31-2.49zM137 100.19h-.01l-.3-2.49.31 2.49z" style="fill:#99fff3;stroke-width:0"/><path d="m161.92 84.94-1.3 9.21-.61 4.31v.02l-.04.25-.38 2.69v.05l-1.78 12.6-.1.69c-.1.7-.69 1.24-1.44 1.37-.12.03-.26.04-.38.04h-17.44c-.1 0-.2-.01-.29-.03-.79-.1-1.42-.65-1.52-1.38l-.1-.69-1.78-12.6v-.05l-.38-2.69-.04-.24v-.03l-.61-4.31-1.3-9.21h29.5Z" style="fill:#34495e;stroke-width:0"/><path d="m159.12 90.42-1.06 6.9-.5 3.23v.02l-.03.19-.31 2.02v.04l-1.45 9.45-.08.52c-.08.53-.56.93-1.17 1.03-.1.02-.21.03-.31.03h-14.2c-.08 0-.16 0-.24-.02-.64-.07-1.16-.49-1.24-1.04l-.08-.52-1.45-9.45v-.04l-.31-2.02-.03-.18v-.02l-.5-3.23-1.06-6.9h24.02Z" style="fill:#99fff3;stroke-width:0"/><rect width="5.37" height="5.38" x="139.46" y="89.4" rx="1.46" ry="1.46" style="fill:#fcfcfc;stroke-width:0" transform="rotate(-16.08 142.133 92.068)"/><rect width="5.37" height="5.38" x="149.55" y="105.46" rx="1.46" ry="1.46" style="fill:#fcfcfc;stroke-width:0" transform="rotate(-16.08 152.21 108.15)"/><rect width="2.15" height="43.2" x="154.14" y="72.2" rx="1.07" ry="1.07" style="fill:#34495e;stroke-width:0" transform="rotate(32.17 155.19 93.784)"/><rect width="5.37" height="5.38" x="140.88" y="98.87" rx="1.46" ry="1.46" style="fill:#fcfcfc;stroke-width:0" transform="rotate(21.65 143.562 101.569)"/><path d="M100.09 152.61c20.99 0 38-12.81 38-31.15s-11.47-29.55-38-29.73c-26.53-.17-38 11.39-38 29.73s17.01 31.15 38 31.15Z" style="fill:#da3b1b;fill-rule:evenodd;stroke-width:0"/><path d="M109.51 94.77c-.24-.12-.48-.22-.73-.32-.22-.09-.17-.28.08-.33h.05c3.7-.83 5.98-2.88 6.76-3.68.17-.18.03-.4-.3-.47-1.49-.3-5.51-.95-9.21-.13-2.7.6-4.64 1.85-5.8 2.8-.13.11-.4.11-.53 0a13.99 13.99 0 0 0-5.8-2.8c-3.7-.82-7.72-.17-9.21.13-.33.07-.47.29-.3.47.78.81 3.06 2.85 6.76 3.67h.05c.25.07.29.26.08.35-.25.1-.49.21-.73.32-3.04 1.49-4.05 3.85-4.34 4.77-.06.2.2.38.55.38 1.58 0 5.74-.16 8.78-1.64.22-.11.54-.02.54.14 0 2.33 2.46 4.3 3.47 5.01.22.16.63.16.85 0 1.01-.71 3.46-2.68 3.46-5.01 0-.17.32-.26.54-.15 3.04 1.49 7.19 1.65 8.78 1.65.35 0 .61-.18.55-.38-.29-.91-1.3-3.28-4.34-4.77Z" style="fill:#00a155;stroke-width:0"/><path d="M100.18 95.8c-1.03 0-1.87-.83-1.87-1.84 0-4.78 2.25-9.01 5.52-11.32.84-.59 2-.4 2.6.43.59.82.41 1.96-.41 2.55 0 0-.02.01-.03.02-2.37 1.67-3.96 4.76-3.96 8.32 0 1.02-.84 1.84-1.87 1.84Z" style="fill:#006539;stroke-width:0"/><path d="M140.34 105.96c-8.78-1.36-25.53-1.63-37.6 1.63h-5.21c-12.07-3.26-28.81-2.98-37.6-1.63-1.09.27-1.09 4.88-.27 5.15 1.65.81 2.47 2.44 2.47 2.44s.55 1.63 1.92 7.59c1.36 5.99 4.94 7.08 4.94 7.08s4.39 1.08 9.33 1.08 7.96-.27 11.25-1.9 4.66-5.97 4.66-5.97 1.65-3.8 2.74-7.32c.27-1.09 5.77-1.09 6.04 0 1.09 3.53 2.74 7.32 2.74 7.32s1.38 4.34 4.66 5.97c3.3 1.63 6.31 1.9 11.25 1.9s9.33-1.08 9.33-1.08 3.57-.81 4.94-7.05c1.38-6.24 1.92-7.59 1.92-7.59s.82-1.63 2.47-2.44c1.12-.28 1.12-5.18.01-5.18Z" style="fill:#000;stroke-width:0"/></svg>
