<svg xmlns="http://www.w3.org/2000/svg" xml:space="preserve" style="enable-background:new 0 0 246 48" viewBox="0 0 246 48"><path d="M0 4.3c0-1.2.2-2.2.7-3S2 0 2.9 0h26.8c1 0 1.7.4 2.2 1.3s.7 1.9.7 3c0 1.2-.3 2.3-.8 3.1s-1.2 1.3-2.1 1.3h-8.6v33.7c0 1-.5 1.7-1.4 2.2-1 .5-2.1.8-3.4.8s-2.5-.3-3.4-.8-1.4-1.3-1.4-2.2V8.7H2.9C2 8.7 1.3 8.3.8 7.4S0 5.5 0 4.3zm28.7 28.5v-4.3c0-3.5 1.4-6.6 4.2-9.2s6.1-3.9 9.9-3.9c3.8 0 7.1 1.3 9.9 3.8 2.8 2.6 4.2 5.6 4.2 9.2v4.3c0 3.5-1.4 6.5-4.3 9.2s-6.1 4-9.9 4c-3.8 0-7.1-1.3-9.9-4-2.7-2.5-4.1-5.6-4.1-9.1zm9.6 0c0 1.2.4 2.3 1.3 3.3s1.9 1.5 3.2 1.5c1.2 0 2.3-.5 3.2-1.5s1.3-2.1 1.3-3.3v-4.3c0-1.2-.5-2.3-1.4-3.2-.9-1-2-1.4-3.2-1.4-1.2 0-2.2.5-3.1 1.4-.9 1-1.3 2-1.3 3.2v4.3zm22.8 9.6V18.7c0-.9.4-1.6 1.3-2.1s2-.8 3.4-.8c1.2 0 2.2.3 3 .8.8.5 1.2 1.2 1.2 2.1v1.4c1.8-3.1 4.5-4.7 8.2-4.7 1.7 0 3.1.6 4.4 1.7 1.3 1.1 2.3 2.6 2.9 4.5 1-2 2.4-3.6 4-4.6s3.4-1.6 5.3-1.6c3.1 0 5.8 1.2 8 3.5 2.2 2.4 3.3 5.5 3.3 9.5v13.9c0 .7-.5 1.4-1.4 2-1 .6-2.1.9-3.4.9-1.2 0-2.3-.3-3.3-.9-1-.6-1.5-1.3-1.5-2V28.5c0-1.5-.4-2.6-1.2-3.5-.8-.8-1.8-1.2-2.9-1.2-1.1 0-2 .4-2.8 1.2-.8.8-1.2 2-1.2 3.5v14c0 1-.5 1.7-1.4 2.2-1 .5-2.1.7-3.4.7-1.2 0-2.3-.2-3.3-.7s-1.5-1.2-1.5-2.2V28.6c0-1.4-.4-2.6-1.3-3.4s-1.8-1.3-2.9-1.3c-1.1 0-2 .4-2.8 1.2-.8.8-1.1 2-1.1 3.4v13.9c0 .7-.5 1.4-1.5 2-1 .6-2.1.9-3.4.9-1.4 0-2.5-.3-3.4-.9s-1.3-1.2-1.3-2zm48.5-4.7c0-3.4 1.3-5.9 3.8-7.3 2.5-1.4 6.1-2.1 10.8-2.1h2.2v-.6c0-1.2-.4-2.3-1.1-3.2-.7-.9-1.9-1.4-3.5-1.4-2 0-3.6.3-4.9 1-1.3.7-2.1 1-2.4 1-1 0-1.8-.5-2.4-1.5-.6-1-.9-2.1-.9-3.3 0-1.4 1.1-2.5 3.4-3.5s4.7-1.5 7.2-1.5c4.8 0 8.3 1.2 10.6 3.5s3.5 5.2 3.5 8.7v14.8c0 .8-.4 1.5-1.3 2.1s-2 .9-3.4.9c-1.2 0-2.2-.3-3-.9-.8-.6-1.2-1.3-1.2-2.1V41c-2.9 3.3-6 5-9.4 5-2.3 0-4.2-.7-5.7-2.1-1.5-1.4-2.3-3.5-2.3-6.2zm9.7-1.3c0 1.7.8 2.6 2.4 2.6 1 0 2.1-.6 3.1-1.7s1.6-2.5 1.6-4V33h-.2c-1.4 0-2.5.1-3.4.2s-1.7.4-2.4 1c-.7.5-1.1 1.2-1.1 2.2zm21.1-.9-2-28.9c-.1-.8.4-1.6 1.3-2.2 1-.6 2-1 3.2-1.1 1.3-.1 2.4.1 3.4.6s1.5 1.1 1.6 2l.7 9.9 7-.5c.7-.1 1.3.2 1.8.9s.7 1.4.8 2.3c.1.9-.1 1.8-.5 2.5s-.9 1.1-1.7 1.1l-7 .5.9 12.2c.1.9.3 1.5.7 1.8.4.3 1.1.5 2 .4l2.7-.2c1.3-.1 2.4.2 3.1 1s1.2 1.7 1.2 2.7c.1 1.1-.2 2.1-.9 2.9-.6.8-1.6 1.3-3 1.4l-2.7.2c-7.8.7-12.1-2.5-12.6-9.5zm54.2 5.7 2.5-23.5c.1-.9.6-1.5 1.5-2 .9-.4 2.1-.6 3.4-.4 1.2.1 2.2.5 2.9 1.1.8.6 1.1 1.4 1 2.2l-.2 2.3c.8-1.4 2-2.6 3.5-3.6s3-1.4 4.5-1.2l1.8.2c.9.1 1.7.6 2.2 1.5.6.9.8 1.9.7 3-.1 1.2-.6 2.1-1.3 2.9-.8.8-1.6 1.1-2.5 1l-1.8-.2c-1.8-.2-3.4.5-5 2.1s-2.4 3.7-2.7 6.4l-1 9.3c-.1.7-.6 1.4-1.7 1.9s-2.2.7-3.5.6c-1.3-.1-2.4-.6-3.2-1.2-.8-.9-1.2-1.6-1.1-2.4zm22.9-8.4v-4.3c0-3.5 1.4-6.6 4.2-9.2 2.8-2.6 6.1-3.9 9.9-3.9 3.8 0 7.1 1.3 9.9 3.8s4.2 5.6 4.2 9.2v4.3c0 3.5-1.4 6.5-4.3 9.2-2.8 2.6-6.1 4-9.9 4s-7.1-1.3-9.9-4-4.1-5.6-4.1-9.1zm9.7 0c0 1.2.4 2.3 1.3 3.3s1.9 1.5 3.2 1.5 2.3-.5 3.2-1.5 1.3-2.1 1.3-3.3v-4.3c0-1.2-.5-2.3-1.4-3.2-.9-1-2-1.4-3.2-1.4s-2.2.5-3.1 1.4c-.9 1-1.3 2-1.3 3.2v4.3z" style="fill-rule:evenodd;clip-rule:evenodd;fill:#172b4d"/><path d="M20.5 39.7c11.3 0 20.5-7 20.5-17S34.8 6.5 20.5 6.4C6.2 6.3 0 12.7 0 22.7s9.2 17 20.5 17z" style="fill-rule:evenodd;clip-rule:evenodd;fill:#da3b1b" transform="translate(155.257 7.321)"/><path d="M25.6 8.1c-.1-.1-.3-.1-.4-.2-.1 0-.1-.2 0-.2 2-.4 3.2-1.6 3.6-2 .1-.1 0-.2-.2-.3-.8-.2-3-.5-5-.1-1.5.3-2.5 1-3.1 1.5-.1.1-.2.1-.3 0-.6-.5-1.7-1.2-3.1-1.5-2-.4-4.2-.1-5 .1-.2 0-.3.2-.2.3.4.4 1.6 1.6 3.6 2 .1 0 .2.1 0 .2.2.1 0 .1-.1.2-1.6.8-2.2 2.1-2.3 2.6 0 .1.1.2.3.2.9 0 3.1-.1 4.7-.9.1-.1.3 0 .3.1 0 1.3 1.3 2.3 1.9 2.7.1.1.3.1.5 0 .5-.4 1.9-1.5 1.9-2.7 0-.1.2-.1.3-.1 1.6.8 3.9.9 4.7.9.2 0 .3-.1.3-.2-.2-.5-.8-1.8-2.4-2.6z" style="fill:#00a155" transform="translate(155.257 7.321)"/><path d="M20.5 8.7c-.6 0-1-.5-1-1 0-2.6 1.2-4.9 3-6.2.5-.3 1.1-.2 1.4.2.3.5.2 1.1-.2 1.4-1.3.9-2.1 2.6-2.1 4.5 0 .6-.5 1.1-1.1 1.1z" style="fill:#006539" transform="translate(155.257 7.321)"/></svg>
