<svg xmlns="http://www.w3.org/2000/svg" width="473" height="450"><g fill="none" fill-rule="evenodd"><path fill="#da3b1b" d="M236.453 449.64c130.59 0 236.453-80.786 236.453-196.471 0-115.673-71.372-186.413-236.453-187.542C71.372 64.524 0 137.496 0 253.17 0 368.854 105.864 449.64 236.453 449.64Z"/><path fill="#00A155" fill-rule="nonzero" d="M295.075 84.827a67.533 67.533 0 0 0-4.557-2.044c-1.355-.55-1.065-1.776.475-2.115l.327-.072c23.032-5.18 37.193-18.075 42.046-23.162 1.064-1.114.162-2.532-1.877-2.949-9.3-1.903-34.276-5.997-57.308-.817-16.809 3.78-28.892 11.669-36.08 17.633-.814.675-2.483.675-3.295 0-7.19-5.964-19.272-13.852-36.08-17.633-23.033-5.18-48.009-1.086-57.31.817-2.039.417-2.94 1.835-1.876 2.95 4.851 5.085 19.015 17.98 42.047 23.16l.327.073c1.538.34 1.83 1.565.474 2.115a67.533 67.533 0 0 0-4.557 2.044c-18.913 9.374-25.196 24.314-26.98 30.064-.39 1.26 1.242 2.425 3.399 2.422 9.836-.01 35.69-1 54.603-10.375.013-.005.026-.012.038-.018 1.342-.666 3.35-.108 3.346.931v.03c0 14.637 15.28 27.073 21.565 31.57 1.378.987 3.927.987 5.306 0 6.286-4.497 21.564-16.932 21.564-31.57v-.03c0-1.04 2.005-1.598 3.347-.93l.037.017c18.913 9.375 44.768 10.364 54.604 10.375 2.157.002 3.789-1.16 3.398-2.422-1.787-5.75-8.07-20.69-26.983-30.064Z"/><path fill="#006539" fill-rule="nonzero" d="M238.137 79.488c-5.9 0-10.691-.794-10.691-6.72 0-29.887 13.841-56.305 33.968-70.677 4.8-3.429 11.467-2.316 14.897 2.494 3.442 4.825 2.322 11.532-2.493 14.97-14.992 10.706-24.989 30.47-24.989 53.213 0 5.926-4.793 6.72-10.692 6.72Z"/></g></svg>
